{
.appVersion = "3151";
.formatVersion = 3;
DisplayStrings = (
"/_part.i ıi/_part.t tFH/_part.caps.fut K"
);
axes = (
{
name = Weight;
tag = wght;
}
);
classes = (
{
automatic = 1;

glyphs = (
{
color = 6;
glyphname = A;
kernLeft = A;
kernRight = A;
lastChange = "2023-02-13 12:42:23 +0000";
layers = (
{
anchors = (
{
name = top;
pos = (356,705);
}
);
background = {
shapes = (
{
closed = 0;
nodes = (
(401,702,l),
(385,707,o),
(371,709,o),
(356,709,cs),
(339,709,o),
(322,706,o),
(311,702,c)
);
}
);
};
layerId = "6DBDBFCA-DF26-4695-B281-FA25C6EAD80F";
shapes = (
{
closed = 1;
nodes = (
(375,625,l),
(331,629,l),
(589,-14,l),
(625,-9,o),
(654,2,o),
(672,21,c),
(393,705,l),
(385,707,o),
(369,709,o),
(354,709,cs),
(341,709,o),
(326,707,o),
(317,705,c),
(40,20,l),
(59,0,o),
(90,-10,o),
(120,-14,c)
);
},
{
closed = 1;
nodes = (
(517,183,l),
(517,268,l),
(180,268,l),
(180,183,l)
);
}
);
width = 712;
}
);
unicode = 65;
},
{
color = 6;
glyphname = B;
kernLeft = H;
kernRight = B;
lastChange = "2023-02-13 12:42:52 +0000";
layers = (
{
layerId = "6DBDBFCA-DF26-4695-B281-FA25C6EAD80F";
shapes = (
{
closed = 1;
nodes = (
(330,0,ls),
(488,0,o),
(584,71,o),
(584,188,cs),
(584,281,o),
(522,352,o),
(421,375,c),
(427,349,l),
(502,385,o),
(539,441,o),
(539,515,cs),
(539,635,o),
(455,705,o),
(310,705,cs),
(100,705,l),
(100,0,l)
);
},
{
closed = 1;
nodes = (
(189,308,l),
(343,308,ls),
(441,308,o),
(494,267,o),
(494,191,cs),
(494,124,o),
(437,85,o),
(341,85,cs),
(189,85,l)
);
},
{
closed = 1;
nodes = (
(189,620,l),
(303,620,ls),
(397,620,o),
(449,580,o),
(449,506,cs),
(449,430,o),
(399,389,o),
(308,389,cs),
(189,389,l)
);
}
);
width = 629;
}
);
metricLeft = P;
unicode = 66;
},
{
color = 6;
glyphname = C;
kernLeft = O;
kernRight = C;
lastChange = "2023-02-13 12:42:49 +0000";
layers = (
{
anchors = (
{
name = bottom;
pos = (380,0);
},
{
name = top;
pos = (335,705);
}
);
layerId = "6DBDBFCA-DF26-4695-B281-FA25C6EAD80F";
shapes = (
{
closed = 1;
nodes = (
(478,-14,o),
(560,18,o),
(622,79,c),
(613,103,o),
(587,133,o),
(566,145,c),
(516,101,o),
(448,74,o),
(386,74,cs),
(247,74,o),
(155,188,o),
(155,359,cs),
(155,529,o),
(241,635,o),
(379,635,cs),
(436,635,o),
(495,613,o),
(544,574,c),
(566,590,o),
(587,625,o),
(589,648,c),
(534,696,o),
(456,723,o),
(374,723,cs),
(190,723,o),
(60,573,o),
(60,359,cs),
(60,140,o),
(193,-14,o),
(383,-14,cs)
);
}
);
width = 664;
}
);
metricLeft = O;
unicode = 67;
},
{
color = 3;
glyphname = D;
kernLeft = H;
kernRight = O;
lastChange = "2023-02-13 12:43:03 +0000";
layers = (
{
layerId = "6DBDBFCA-DF26-4695-B281-FA25C6EAD80F";
shapes = (
{
closed = 1;
nodes = (
(266,0,ls),
(510,0,o),
(651,130,o),
(651,356,cs),
(651,574,o),
(509,705,o),
(273,705,cs),
(100,705,l),
(101,703,l),
(101,4,l),
(100,0,l)
);
},
{
closed = 1;
nodes = (
(193,620,l),
(272,620,ls),
(458,620,o),
(557,528,o),
(557,356,cs),
(557,182,o),
(458,85,o),
(280,85,cs),
(193,85,l)
);
}
);
width = 711;
}
);
metricLeft = P;
metricRight = O;
unicode = 68;
},
{
color = 10;
glyphname = E;
kernLeft = H;
kernRight = H;
lastChange = "2023-02-13 12:43:33 +0000";
layers = (
{
anchors = (
{
name = top;
pos = (314,705);
}
);
layerId = "6DBDBFCA-DF26-4695-B281-FA25C6EAD80F";
shapes = (
{
closed = 1;
nodes = (
(533,0,l),
(541,26,o),
(541,63,o),
(533,86,c),
(192,86,l),
(192,310,l),
(504,310,l),
(511,338,o),
(512,373,o),
(504,396,c),
(192,396,l),
(192,619,l),
(526,619,l),
(533,643,o),
(534,682,o),
(526,705,c),
(100,705,l),
(100,0,l)
);
}
);
width = 602;
}
);
metricLeft = H;
unicode = 69;
},
{
color = 10;
glyphname = F;
kernLeft = H;
kernRight = F;
lastChange = "2023-02-13 12:47:13 +0000";
layers = (
{
layerId = "6DBDBFCA-DF26-4695-B281-FA25C6EAD80F";
shapes = (
{
closed = 1;
nodes = (
(161,-4,o),
(177,-3,o),
(192,0,c),
(192,321,l),
(495,321,l),
(502,347,o),
(502,380,o),
(495,407,c),
(192,407,l),
(192,619,l),
(527,619,l),
(535,643,o),
(535,681,o),
(527,705,c),
(100,705,l),
(100,0,l),
(116,-3,o),
(131,-4,o),
(146,-4,cs)
);
}
);
width = 586;
}
);
metricLeft = H;
metricRight = "=E-10";
unicode = 70;
},
{
color = 6;
glyphname = G;
kernLeft = O;
kernRight = O;
lastChange = "2023-02-13 12:44:48 +0000";
layers = (
{
layerId = "6DBDBFCA-DF26-4695-B281-FA25C6EAD80F";
shapes = (
{
closed = 1;
nodes = (
(556,-14,o),
(662,99,o),
(662,284,cs),
(662,322,o),
(657,371,o),
(652,382,c),
(349,382,l),
(339,361,o),
(339,315,o),
(349,297,c),
(610,297,l),
(564,324,l),
(569,311,o),
(571,296,o),
(571,268,cs),
(571,155,o),
(495,74,o),
(389,74,cs),
(245,74,o),
(154,185,o),
(154,359,cs),
(154,539,o),
(237,635,o),
(393,635,cs),
(452,635,o),
(500,620,o),
(557,585,c),
(580,608,o),
(594,636,o),
(597,663,c),
(544,703,o),
(474,723,o),
(391,723,cs),
(188,723,o),
(60,582,o),
(60,359,cs),
(60,135,o),
(189,-14,o),
(384,-14,cs)
);
}
);
width = 727;
}
);
metricLeft = O;
metricRight = "=O+5";
unicode = 71;
},
{
color = 10;
glyphname = H;
kernLeft = H;
kernRight = H;
lastChange = "2023-02-13 12:49:49 +0000";
layers = (
{
layerId = "6DBDBFCA-DF26-4695-B281-FA25C6EAD80F";
shapes = (
{
closed = 1;
nodes = (
(161,-6,o),
(175,-4,o),
(192,0,c),
(192,327,l),
(498,327,l),
(498,0,l),
(515,-4,o),
(529,-6,o),
(544,-6,cs),
(560,-6,o),
(575,-4,o),
(590,0,c),
(590,705,l),
(573,709,o),
(559,711,o),
(544,711,cs),
(528,711,o),
(513,709,o),
(498,705,c),
(498,413,l),
(192,413,l),
(192,705,l),
(177,709,o),
(162,711,o),
(146,711,cs),
(131,711,o),
(117,709,o),
(100,705,c),
(100,0,l),
(115,-4,o),
(130,-6,o),
(146,-6,cs)
);
}
);
width = 692;
}
);
unicode = 72;
},
{
color = 3;
glyphname = I;
kernLeft = I;
kernRight = I;
lastChange = "2023-02-13 12:46:53 +0000";
layers = (
{
anchors = (
{
name = top;
pos = (223,705);
}
);
layerId = "6DBDBFCA-DF26-4695-B281-FA25C6EAD80F";
shapes = (
{
closed = 1;
nodes = (
(401,0,l),
(410,22,o),
(410,61,o),
(401,83,c),
(269,83,l),
(269,622,l),
(401,622,l),
(410,644,o),
(410,683,o),
(401,705,c),
(45,705,l),
(36,683,o),
(36,644,o),
(45,622,c),
(177,622,l),
(177,83,l),
(45,83,l),
(36,61,o),
(36,22,o),
(45,0,c)
);
}
);
width = 445;
}
);
unicode = 73;
},
{
color = 6;
glyphname = J;
kernLeft = J;
kernRight = J;
lastChange = "2023-02-13 12:47:41 +0000";
layers = (
{
layerId = "6DBDBFCA-DF26-4695-B281-FA25C6EAD80F";
shapes = (
{
closed = 1;
nodes = (
(403,-14,o),
(481,78,o),
(481,231,cs),
(481,625,l),
(660,625,l),
(667,655,o),
(668,674,o),
(660,705,c),
(180,705,l),
(170,674,o),
(172,655,o),
(180,625,c),
(388,625,l),
(388,231,ls),
(388,132,o),
(350,74,o),
(265,74,cs),
(175,74,o),
(144,139,o),
(129,241,c),
(99,245,o),
(60,238,o),
(40,223,c),
(53,81,o),
(117,-14,o),
(263,-14,cs)
);
}
);
width = 696;
}
);
unicode = 74;
},
{
color = 3;
glyphname = K;
kernLeft = H;
kernRight = K;
lastChange = "2023-02-13 12:50:16 +0000";
layers = (
{
layerId = "6DBDBFCA-DF26-4695-B281-FA25C6EAD80F";
shapes = (
{
closed = 1;
nodes = (
(595,660,l),
(577,687,o),
(559,706,o),
(529,718,c),
(163,297,l),
(164,168,l)
);
},
{
closed = 1;
nodes = (
(162,-6,o),
(177,-4,o),
(192,0,c),
(192,705,l),
(175,709,o),
(161,711,o),
(146,711,cs),
(130,711,o),
(115,709,o),
(100,705,c),
(100,0,l),
(117,-4,o),
(131,-6,o),
(146,-6,cs)
);
},
{
closed = 1;
nodes = (
(615,-8,o),
(646,20,o),
(659,46,c),
(366,410,l),
(299,351,l),
(589,-14,l)
);
}
);
width = 679;
}
);
metricLeft = H;
unicode = 75;
},
{
color = 3;
glyphname = L;
kernLeft = H;
kernRight = L;
lastChange = "2023-02-13 11:45:07 +0000";
layers = (
{
layerId = "6DBDBFCA-DF26-4695-B281-FA25C6EAD80F";
shapes = (
{
closed = 1;
nodes = (
(192,0,l),
(192,705,l),
(177,708,o),
(158,709,o),
(144,709,cs),
(133,709,o),
(116,708,o),
(100,705,c),
(100,0,l)
);
},
{
pos = (-15,0);
ref = _part.caps.barre;
}
);
width = 559;
}
);
metricLeft = H;
unicode = 76;
},
{
color = 6;
glyphname = M;
kernLeft = H;
kernRight = H;
lastChange = "2023-02-13 14:47:57 +0000";
layers = (
{
layerId = "6DBDBFCA-DF26-4695-B281-FA25C6EAD80F";
shapes = (
{
closed = 1;
nodes = (
(419,116,o),
(454,115,o),
(474,122,c),
(738,639,l),
(675,705,l),
(411,183,l),
(457,183,l),
(191,705,l),
(127,639,l),
(392,122,l)
);
},
{
closed = 1;
nodes = (
(130,-5,o),
(159,-5,o),
(190,0,c),
(190,705,l),
(175,708,o),
(158,709,o),
(144,709,cs),
(133,709,o),
(116,708,o),
(100,705,c),
(100,0,l)
);
},
{
closed = 1;
nodes = (
(705,-5,o),
(733,-5,o),
(765,0,c),
(765,705,l),
(750,708,o),
(732,709,o),
(718,709,cs),
(707,709,o),
(692,708,o),
(675,705,c),
(675,0,l)
);
}
);
width = 867;
}
);
metricLeft = H;
metricRight = H;
unicode = 77;
},
{
color = 6;
glyphname = N;
kernLeft = H;
kernRight = H;
lastChange = "2023-02-13 14:47:57 +0000";
layers = (
{
anchors = (
{
name = top;
pos = (381,705);
}
);
layerId = "6DBDBFCA-DF26-4695-B281-FA25C6EAD80F";
shapes = (
{
closed = 1;
nodes = (
(162,-3,o),
(174,-2,o),
(192,0,c),
(192,562,l),
(154,593,l),
(582,0,l),
(605,-6,o),
(635,-8,o),
(662,3,c),
(662,705,l),
(651,707,o),
(634,708,o),
(617,708,cs),
(601,708,o),
(590,707,o),
(570,705,c),
(570,122,l),
(607,120,l),
(184,705,l),
(174,707,o),
(168,708,o),
(155,708,cs),
(135,708,o),
(113,706,o),
(100,700,c),
(100,0,l),
(115,-2,o),
(129,-3,o),
(146,-3,cs)
);
}
);
width = 764;
}
);
metricLeft = H;
metricRight = H;
unicode = 78;
},
{
color = 6;
glyphname = O;
kernLeft = O;
kernRight = O;
lastChange = "2023-02-13 11:45:07 +0000";
layers = (
{
anchors = (
{
name = top;
pos = (370,705);
}
);
layerId = "6DBDBFCA-DF26-4695-B281-FA25C6EAD80F";
shapes = (
{
closed = 1;
nodes = (
(557,-18,o),
(680,136,o),
(680,350,cs),
(680,569,o),
(559,723,o),
(371,723,cs),
(183,723,o),
(60,569,o),
(60,350,cs),
(60,136,o),
(184,-18,o),
(371,-18,cs)
);
},
{
closed = 1;
nodes = (
(239,70,o),
(154,184,o),
(154,350,cs),
(154,522,o),
(239,635,o),
(371,635,cs),
(503,635,o),
(587,522,o),
(587,350,cs),
(587,184,o),
(502,70,o),
(371,70,cs)
);
}
);
width = 740;
}
);
unicode = 79;
},
{
color = 6;
glyphname = P;
kernLeft = H;
kernRight = P;
lastChange = "2023-02-13 11:45:07 +0000";
layers = (
{
layerId = "6DBDBFCA-DF26-4695-B281-FA25C6EAD80F";
shapes = (
{
closed = 1;
nodes = (
(160,-3,o),
(176,-2,o),
(191,0,c),
(191,652,l),
(177,620,l),
(322,620,ls),
(423,620,o),
(490,576,o),
(490,482,cs),
(490,386,o),
(424,338,o),
(271,338,cs),
(183,338,l),
(183,254,l),
(280,254,ls),
(437,254,o),
(583,312,o),
(583,482,cs),
(583,647,o),
(458,705,o),
(322,705,cs),
(100,705,l),
(100,0,l),
(115,-2,o),
(130,-3,o),
(147,-3,cs)
);
}
);
width = 633;
}
);
metricLeft = H;
unicode = 80;
},
{
color = 3;
glyphname = Q;
kernLeft = O;
kernRight = O;
lastChange = "2023-02-13 11:45:07 +0000";
layers = (
{
layerId = "6DBDBFCA-DF26-4695-B281-FA25C6EAD80F";
shapes = (
{
closed = 1;
nodes = (
(638,-115,o),
(657,-96,o),
(676,-71,c),
(421,304,l),
(390,295,o),
(370,276,o),
(348,254,c),
(604,-123,l)
);
},
{
ref = O;
}
);
width = 740;
}
);
metricLeft = O;
metricRight = O;
unicode = 81;
},
{
color = 6;
glyphname = R;
kernLeft = H;
kernRight = R;
lastChange = "2023-02-13 11:45:07 +0000";
layers = (
{
layerId = "6DBDBFCA-DF26-4695-B281-FA25C6EAD80F";
shapes = (
{
closed = 1;
nodes = (
(160,-5,o),
(177,-3,o),
(192,0,c),
(192,652,l),
(177,620,l),
(330,620,ls),
(416,620,o),
(478,576,o),
(478,492,cs),
(478,378,o),
(377,350,o),
(295,350,cs),
(183,350,l),
(183,265,l),
(295,265,ls),
(387,265,o),
(572,317,o),
(572,495,cs),
(572,647,o),
(453,705,o),
(322,705,cs),
(100,705,l),
(100,0,l),
(115,-3,o),
(130,-5,o),
(147,-5,cs)
);
},
{
closed = 1;
nodes = (
(556,1,o),
(586,26,o),
(597,53,c),
(389,332,l),
(310,281,l),
(525,-6,l)
);
}
);
width = 650;
}
);
metricLeft = P;
unicode = 82;
},
{
color = 6;
glyphname = S;
kernLeft = S;
kernRight = S;
lastChange = "2023-02-13 11:45:07 +0000";
layers = (
{
layerId = "6DBDBFCA-DF26-4695-B281-FA25C6EAD80F";
shapes = (
{
closed = 1;
nodes = (
(418,-14,o),
(525,59,o),
(525,187,cs),
(525,316,o),
(414,369,o),
(364,390,cs),
(264,434,ls),
(226,450,o),
(169,477,o),
(169,544,cs),
(169,598,o),
(220,636,o),
(291,636,cs),
(366,636,o),
(415,593,o),
(442,559,c),
(470,572,o),
(495,600,o),
(503,622,c),
(461,687,o),
(377,723,o),
(294,723,cs),
(169,723,o),
(75,647,o),
(75,539,cs),
(75,420,o),
(189,368,o),
(226,352,cs),
(318,312,ls),
(379,286,o),
(432,258,o),
(432,194,cs),
(432,117,o),
(373,74,o),
(292,74,cs),
(217,74,o),
(152,109,o),
(101,158,c),
(80,142,o),
(57,115,o),
(48,87,c),
(105,26,o),
(187,-14,o),
(292,-14,cs)
);
}
);
width = 585;
}
);
unicode = 83;
},
{
color = 6;
glyphname = T;
kernLeft = T;
kernRight = T;
lastChange = "2023-02-13 11:45:07 +0000";
layers = (
{
layerId = "6DBDBFCA-DF26-4695-B281-FA25C6EAD80F";
shapes = (
{
closed = 1;
nodes = (
(335,-5,o),
(350,-3,o),
(366,0,c),
(366,671,l),
(273,671,l),
(273,0,l),
(288,-3,o),
(303,-5,o),
(319,-5,cs)
);
},
{
closed = 1;
nodes = (
(600,622,l),
(604,632,o),
(608,647,o),
(608,663,cs),
(608,679,o),
(605,695,o),
(600,705,c),
(39,705,l),
(34,697,o),
(31,682,o),
(31,665,cs),
(31,651,o),
(34,636,o),
(39,622,c)
);
}
);
width = 639;
}
);
unicode = 84;
},
{
color = 6;
glyphname = U;
kernLeft = U;
kernRight = U;
lastChange = "2023-02-13 11:45:07 +0000";
layers = (
{
anchors = (
{
name = top;
pos = (362,705);
}
);
layerId = "6DBDBFCA-DF26-4695-B281-FA25C6EAD80F";
shapes = (
{
closed = 1;
nodes = (
(543,-14,o),
(632,107,o),
(632,310,cs),
(632,705,l),
(615,707,o),
(599,708,o),
(582,708,cs),
(567,708,o),
(556,707,o),
(538,705,c),
(538,310,ls),
(538,153,o),
(488,78,o),
(361,78,cs),
(234,78,o),
(184,153,o),
(184,310,cs),
(184,705,l),
(169,707,o),
(155,708,o),
(140,708,cs),
(123,708,o),
(107,707,o),
(90,705,c),
(90,310,ls),
(90,107,o),
(179,-14,o),
(361,-14,cs)
);
}
);
width = 722;
}
);
metricLeft = "=H-10";
metricRight = "=H-10";
unicode = 85;
},
{
color = 6;
glyphname = V;
kernLeft = V;
kernRight = V;
lastChange = "2023-02-13 11:45:07 +0000";
layers = (
{
layerId = "6DBDBFCA-DF26-4695-B281-FA25C6EAD80F";
shapes = (
{
closed = 1;
nodes = (
(328,-6,o),
(348,-6,o),
(379,0,c),
(638,687,l),
(619,705,o),
(582,716,o),
(555,718,c),
(300,38,l),
(374,50,l),
(116,718,l),
(89,715,o),
(55,704,o),
(31,687,c),
(297,0,l)
);
}
);
width = 669;
}
);
unicode = 86;
},
{
color = 6;
glyphname = W;
kernLeft = W;
kernRight = W;
lastChange = "2023-02-13 11:45:07 +0000";
layers = (
{
layerId = "6DBDBFCA-DF26-4695-B281-FA25C6EAD80F";
shapes = (
{
closed = 1;
nodes = (
(239,-5,o),
(284,-5,o),
(306,0,c),
(499,501,l),
(467,501,l),
(661,0,l),
(683,-5,o),
(728,-5,o),
(745,0,c),
(923,695,l),
(904,706,o),
(869,714,o),
(838,715,c),
(683,106,l),
(709,108,l),
(524,586,l),
(496,591,o),
(472,591,o),
(444,586,c),
(260,108,l),
(285,106,l),
(129,715,l),
(96,716,o),
(63,706,o),
(43,695,c),
(222,0,l)
);
}
);
width = 966;
}
);
unicode = 87;
},
{
color = 6;
glyphname = X;
kernLeft = X;
kernRight = X;
lastChange = "2023-02-13 11:45:07 +0000";
layers = (
{
layerId = "6DBDBFCA-DF26-4695-B281-FA25C6EAD80F";
shapes = (
{
closed = 1;
nodes = (
(593,-7,o),
(624,11,o),
(637,38,c),
(153,718,l),
(124,707,o),
(98,689,o),
(79,666,c),
(561,-14,l)
);
},
{
closed = 1;
nodes = (
(374,336,l),
(326,423,l),
(54,42,l),
(62,18,o),
(97,-10,o),
(125,-14,c)
);
},
{
closed = 1;
nodes = (
(612,666,l),
(593,688,o),
(569,706,o),
(540,718,c),
(335,423,l),
(385,338,l)
);
}
);
width = 668;
}
);
unicode = 88;
},
{
color = 6;
glyphname = Y;
kernLeft = Y;
kernRight = Y;
lastChange = "2023-02-13 11:45:07 +0000";
layers = (
{
layerId = "6DBDBFCA-DF26-4695-B281-FA25C6EAD80F";
shapes = (
{
closed = 1;
nodes = (
(356,307,l),
(104,718,l),
(79,714,o),
(43,697,o),
(26,672,c),
(292,239,l)
);
},
{
closed = 1;
nodes = (
(333,-3,o),
(345,-2,o),
(362,0,c),
(362,351,l),
(270,351,l),
(270,0,l),
(285,-2,o),
(300,-3,o),
(316,-3,cs)
);
},
{
closed = 1;
nodes = (
(605,673,l),
(591,697,o),
(552,717,o),
(528,717,c),
(278,307,l),
(341,239,l)
);
}
);
width = 631;
}
);
unicode = 89;
},
{
color = 6;
glyphname = Z;
kernLeft = Z;
kernRight = Z;
lastChange = "2023-02-13 11:45:07 +0000";
layers = (
{
layerId = "6DBDBFCA-DF26-4695-B281-FA25C6EAD80F";
shapes = (
{
closed = 1;
nodes = (
(124,0,l),
(579,632,l),
(504,680,l),
(61,68,l),
(58,51,o),
(61,18,o),
(67,0,c)
);
},
{
closed = 1;
nodes = (
(588,0,l),
(593,14,o),
(596,28,o),
(596,43,cs),
(596,58,o),
(594,73,o),
(588,85,c),
(121,85,l),
(117,73,o),
(115,60,o),
(115,44,cs),
(115,30,o),
(117,14,o),
(121,0,c)
);
},
{
closed = 1;
nodes = (
(478,620,l),
(579,632,l),
(584,652,o),
(580,688,o),
(573,705,c),
(75,705,l),
(71,694,o),
(70,680,o),
(70,664,cs),
(70,651,o),
(71,634,o),
(75,620,c)
);
}
);
width = 628;
}
);
unicode = 90;
},
{
color = 6;
glyphname = J.calt;
kernLeft = J;
kernRight = U;
lastChange = "2023-02-13 11:45:07 +0000";
layers = (
{
layerId = "6DBDBFCA-DF26-4695-B281-FA25C6EAD80F";
shapes = (
{
closed = 1;
nodes = (
(403,-14,o),
(481,78,o),
(481,231,cs),
(481,671,l),
(388,671,l),
(388,231,ls),
(388,132,o),
(350,74,o),
(265,74,cs),
(175,74,o),
(144,139,o),
(129,241,c),
(99,245,o),
(70,238,o),
(40,223,c),
(53,81,o),
(117,-14,o),
(263,-14,cs)
);
},
{
closed = 1;
nodes = (
(481,622,l),
(481,705,l),
(180,705,l),
(170,673,o),
(172,654,o),
(180,622,c)
);
}
);
width = 571;
}
);
metricLeft = J;
metricRight = U;
},
{
color = 6;
glyphname = Z.ss01;
kernLeft = Z;
kernRight = Z;
lastChange = "2023-02-13 11:45:07 +0000";
layers = (
{
layerId = "6DBDBFCA-DF26-4695-B281-FA25C6EAD80F";
shapes = (
{
closed = 1;
nodes = (
(104,0,l),
(559,632,l),
(484,680,l),
(41,68,l),
(38,51,o),
(41,18,o),
(47,0,c)
);
},
{
closed = 1;
nodes = (
(568,0,l),
(573,14,o),
(576,28,o),
(576,43,cs),
(576,58,o),
(574,73,o),
(568,85,c),
(101,85,l),
(97,73,o),
(95,60,o),
(95,44,cs),
(95,30,o),
(97,14,o),
(101,0,c)
);
},
{
closed = 1;
nodes = (
(279,323,l),
(329,403,l),
(107,403,l),
(101,392,o),
(100,379,o),
(100,365,cs),
(100,352,o),
(101,336,o),
(107,323,c)
);
},
{
closed = 1;
nodes = (
(515,316,l),
(521,329,o),
(523,343,o),
(523,357,cs),
(523,370,o),
(522,386,o),
(515,396,c),
(329,396,l),
(279,316,l)
);
},
{
closed = 1;
nodes = (
(458,620,l),
(559,632,l),
(564,652,o),
(560,688,o),
(553,705,c),
(55,705,l),
(51,694,o),
(50,680,o),
(50,664,cs),
(50,651,o),
(51,634,o),
(55,620,c)
);
}
);
width = 588;
}
);
},
{
color = 6;
export = 0;
glyphname = A.ss05;
kernLeft = A;
kernRight = A;
lastChange = "2023-02-13 11:45:07 +0000";
layers = (
{
anchors = (
{
name = top;
pos = (321,705);
}
);
layerId = "6DBDBFCA-DF26-4695-B281-FA25C6EAD80F";
shapes = (
{
closed = 1;
nodes = (
(628,0,o),
(655,19,o),
(663,50,c),
(616,109,o),
(571,174,o),
(507,333,cs),
(361,705,l),
(336,710,o),
(302,709,o),
(283,705,c),
(280,682,l),
(427,301,ls),
(493,132,o),
(541,39,o),
(599,-16,c)
);
},
{
closed = 1;
nodes = (
(357,666,l),
(283,705,l),
(5,23,l),
(26,1,o),
(53,-8,o),
(82,-11,c)
);
},
{
closed = 1;
nodes = (
(530,184,l),
(530,267,l),
(142,267,l),
(142,184,l)
);
}
);
width = 682;
}
);
},
{
color = 6;
export = 0;
glyphname = B.ss05;
kernLeft = H;
kernRight = B;
lastChange = "2023-02-13 11:45:07 +0000";
layers = (
{
layerId = "6DBDBFCA-DF26-4695-B281-FA25C6EAD80F";
shapes = (
{
closed = 1;
nodes = (
(516,-14,o),
(610,70,o),
(610,189,cs),
(610,283,o),
(558,372,o),
(408,387,c),
(425,344,l),
(535,377,o),
(573,445,o),
(573,524,cs),
(573,642,o),
(493,718,o),
(291,718,cs),
(214,718,o),
(100,714,o),
(-9,696,c),
(-15,665,o),
(-8,629,o),
(0,613,c),
(99,629,o),
(222,635,o),
(291,635,cs),
(443,635,o),
(483,589,o),
(483,520,cs),
(483,439,o),
(422,391,o),
(326,391,cs),
(201,391,l),
(201,310,l),
(357,310,ls),
(460,310,o),
(520,267,o),
(520,189,cs),
(520,101,o),
(447,70,o),
(335,70,cs),
(258,70,o),
(206,76,o),
(161,83,c),
(133,0,l),
(166,-5,o),
(266,-14,o),
(336,-14,cs)
);
},
{
closed = 1;
nodes = (
(221,0,l),
(221,648,l),
(133,648,l),
(133,0,l)
);
}
);
width = 689;
}
);
},
{
color = 6;
export = 0;
glyphname = C.ss05;
kernLeft = O;
kernRight = C;
lastChange = "2023-02-13 11:45:07 +0000";
layers = (
{
layerId = "6DBDBFCA-DF26-4695-B281-FA25C6EAD80F";
shapes = (
{
closed = 1;
nodes = (
(435,-14,o),
(521,26,o),
(580,77,c),
(572,101,o),
(554,131,o),
(531,147,c),
(482,107,o),
(412,76,o),
(342,76,cs),
(182,76,o),
(107,198,o),
(107,360,cs),
(107,541,o),
(197,629,o),
(303,629,cs),
(386,629,o),
(447,577,o),
(458,476,c),
(495,473,o),
(532,482,o),
(547,496,c),
(528,645,o),
(425,718,o),
(301,718,cs),
(117,718,o),
(11,555,o),
(11,360,cs),
(11,147,o),
(125,-14,o),
(338,-14,cs)
);
}
);
width = 622;
}
);
metricRight = C;
},
{
color = 6;
export = 0;
glyphname = D.ss05;
kernLeft = H;
kernRight = O;
lastChange = "2023-02-13 11:45:07 +0000";
layers = (
{
layerId = "6DBDBFCA-DF26-4695-B281-FA25C6EAD80F";
shapes = (
{
closed = 1;
nodes = (
(557,-14,o),
(692,120,o),
(692,351,cs),
(692,565,o),
(548,718,o),
(294,718,cs),
(210,718,o),
(82,705,o),
(-11,668,c),
(-14,645,o),
(0,599,o),
(16,584,c),
(106,619,o),
(217,630,o),
(284,630,cs),
(495,630,o),
(599,511,o),
(599,345,cs),
(599,196,o),
(523,74,o),
(314,74,cs),
(257,74,o),
(195,88,o),
(159,106,c),
(133,19,l),
(154,7,o),
(222,-14,o),
(299,-14,cs)
);
},
{
closed = 1;
nodes = (
(241,46,o),
(250,123,o),
(250,209,cs),
(250,705,l),
(157,705,l),
(157,198,ls),
(157,123,o),
(147,69,o),
(133,19,c),
(224,-6,l)
);
}
);
width = 742;
}
);
metricLeft = B.ss05;
metricRight = "=O-10";
},
{
color = 6;
export = 0;
glyphname = E.ss05;
kernLeft = H;
kernRight = H;
lastChange = "2023-02-13 11:45:07 +0000";
layers = (
{
anchors = (
{
name = top;
pos = (325,705);
}
);
layerId = "6DBDBFCA-DF26-4695-B281-FA25C6EAD80F";
shapes = (
{
closed = 1;
nodes = (
(424,-14,o),
(511,20,o),
(574,77,c),
(564,105,o),
(548,133,o),
(526,147,c),
(480,108,o),
(416,74,o),
(328,74,cs),
(259,74,o),
(173,101,o),
(173,196,cs),
(173,277,o),
(242,321,o),
(359,321,c),
(359,400,l),
(161,400,o),
(79,303,o),
(79,192,cs),
(79,65,o),
(175,-14,o),
(327,-14,cs)
);
},
{
closed = 1;
nodes = (
(405,321,l),
(413,341,o),
(410,387,o),
(403,406,c),
(339,406,ls),
(242,406,o),
(173,442,o),
(173,524,cs),
(173,612,o),
(270,630,o),
(326,630,cs),
(390,630,o),
(443,610,o),
(473,595,c),
(489,610,o),
(504,652,o),
(504,673,c),
(471,696,o),
(399,718,o),
(326,718,cs),
(185,718,o),
(79,644,o),
(79,524,cs),
(79,410,o),
(161,321,o),
(359,321,cs)
);
}
);
width = 580;
}
);
},
{
color = 3;
export = 0;
glyphname = F.ss05;
kernLeft = H;
kernRight = F;
lastChange = "2023-02-13 11:45:07 +0000";
layers = (
{
layerId = "6DBDBFCA-DF26-4695-B281-FA25C6EAD80F";
shapes = (
{
closed = 1;
nodes = (
(176,-6,o),
(207,-6,o),
(238,0,c),
(238,648,l),
(145,648,l),
(145,0,l)
);
},
{
pos = (27,321);
ref = _part.caps.barre;
scale = (0.8403,1);
},
{
closed = 1;
nodes = (
(210,620,l),
(299,705,l),
(11,705,l),
(2,677,o),
(5,648,o),
(11,620,c)
);
},
{
pos = (37,619);
ref = _part.caps.barre;
}
);
width = 630;
}
);
},
{
color = 6;
export = 0;
glyphname = G.ss05;
kernLeft = O;
kernRight = O;
lastChange = "2023-02-13 11:45:07 +0000";
layers = (
{
layerId = "6DBDBFCA-DF26-4695-B281-FA25C6EAD80F";
shapes = (
{
closed = 1;
nodes = (
(480,-14,o),
(579,115,o),
(579,270,cs),
(579,344,l),
(549,351,o),
(520,351,o),
(488,344,c),
(488,270,ls),
(488,151,o),
(412,76,o),
(317,76,cs),
(174,76,o),
(105,203,o),
(105,360,cs),
(105,541,o),
(198,629,o),
(304,629,cs),
(379,629,o),
(442,585,o),
(467,514,c),
(495,513,o),
(537,532,o),
(546,559,c),
(506,661,o),
(417,718,o),
(307,718,cs),
(118,718,o),
(11,555,o),
(11,360,cs),
(11,151,o),
(114,-14,o),
(317,-14,cs)
);
},
{
closed = 1;
nodes = (
(528,-316,o),
(579,-214,o),
(579,-25,cs),
(579,272,l),
(488,228,l),
(488,-16,ls),
(488,-129,o),
(474,-228,o),
(359,-228,cs),
(314,-228,o),
(272,-214,o),
(241,-204,c),
(227,-224,o),
(219,-263,o),
(219,-288,c),
(244,-300,o),
(304,-316,o),
(352,-316,cs)
);
}
);
width = 647;
}
);
metricLeft = C.ss05;
},
{
color = 6;
export = 0;
glyphname = J.ss05;
kernLeft = J;
kernRight = J;
lastChange = "2023-02-13 11:45:07 +0000";
layers = (
{
layerId = "6DBDBFCA-DF26-4695-B281-FA25C6EAD80F";
shapes = (
{
closed = 1;
nodes = (
(253,-316,o),
(328,-241,o),
(328,-85,cs),
(328,705,l),
(238,705,l),
(238,-72,ls),
(238,-184,o),
(196,-228,o),
(129,-228,cs),
(87,-228,o),
(25,-206,o),
(-2,-192,c),
(-16,-212,o),
(-32,-249,o),
(-32,-270,c),
(-12,-285,o),
(63,-316,o),
(129,-316,cs)
);
},
{
closed = 1;
nodes = (
(283,620,l),
(283,705,l),
(29,705,l),
(20,677,o),
(20,648,o),
(29,620,c)
);
}
);
width = 423;
}
);
},
{
color = 6;
export = 0;
glyphname = K.ss05;
kernLeft = H;
kernRight = K;
lastChange = "2023-02-13 11:45:07 +0000";
layers = (
{
layerId = "6DBDBFCA-DF26-4695-B281-FA25C6EAD80F";
shapes = (
{
closed = 1;
nodes = (
(626,-2,o),
(652,38,o),
(652,68,c),
(591,95,o),
(530,144,o),
(410,247,cs),
(245,390,l),
(250,315,l),
(538,662,l),
(520,689,o),
(500,706,o),
(470,718,c),
(157,341,l),
(338,184,ls),
(459,80,o),
(541,15,o),
(609,-14,c)
);
},
{
closed = 1;
nodes = (
(147,-3,o),
(162,-2,o),
(178,0,c),
(178,705,l),
(162,707,o),
(147,708,o),
(131,708,cs),
(116,708,o),
(101,707,o),
(87,705,c),
(87,0,l),
(101,-2,o),
(116,-3,o),
(131,-3,cs)
);
}
);
width = 645;
}
);
},
{
color = 6;
export = 0;
glyphname = L.ss05;
kernLeft = H;
kernRight = L;
lastChange = "2023-02-13 11:45:07 +0000";
layers = (
{
layerId = "6DBDBFCA-DF26-4695-B281-FA25C6EAD80F";
shapes = (
{
closed = 1;
nodes = (
(147,10,o),
(231,62,o),
(231,212,cs),
(231,705,l),
(215,707,o),
(200,709,o),
(184,709,cs),
(168,709,o),
(153,708,o),
(138,705,c),
(138,220,ls),
(138,117,o),
(104,91,o),
(37,79,c),
(27,61,o),
(30,21,o),
(43,0,c)
);
},
{
closed = 1;
nodes = (
(503,-8,o),
(575,59,o),
(602,156,c),
(583,175,o),
(551,186,o),
(524,188,c),
(505,132,o),
(479,82,o),
(386,82,cs),
(325,82,o),
(233,94,o),
(160,94,cs),
(138,94,o),
(94,90,o),
(71,87,c),
(43,0,l),
(73,2,o),
(99,3,o),
(160,3,cs),
(245,3,o),
(320,-8,o),
(388,-8,cs)
);
}
);
width = 582;
}
);
},
{
color = 6;
export = 0;
glyphname = M.ss05;
kernLeft = M;
kernRight = M;
lastChange = "2023-02-13 11:45:07 +0000";
layers = (
{
layerId = "6DBDBFCA-DF26-4695-B281-FA25C6EAD80F";
shapes = (
{
closed = 1;
nodes = (
(409,-7,o),
(447,-6,o),
(460,0,c),
(635,615,l),
(575,705,l),
(399,86,l),
(445,86,l),
(247,705,l),
(187,615,l),
(385,0,l)
);
},
{
closed = 1;
nodes = (
(228,575,l),
(247,705,l),
(222,710,o),
(193,709,o),
(165,705,c),
(35,10,l),
(59,-1,o),
(88,-8,o),
(120,-8,c)
);
},
{
closed = 1;
nodes = (
(815,-11,o),
(839,11,o),
(853,39,c),
(796,101,o),
(765,192,o),
(730,357,cs),
(657,705,l),
(629,710,o),
(603,710,o),
(575,705,c),
(586,629,l),
(645,343,ls),
(681,165,o),
(716,53,o),
(789,-21,c)
);
}
);
width = 880;
}
);
},
{
color = 6;
export = 0;
glyphname = P.ss05;
kernLeft = H;
kernRight = P;
lastChange = "2023-02-13 11:45:07 +0000";
layers = (
{
layerId = "6DBDBFCA-DF26-4695-B281-FA25C6EAD80F";
shapes = (
{
closed = 1;
nodes = (
(303,251,ls),
(444,251,o),
(610,306,o),
(610,492,cs),
(610,656,o),
(477,718,o),
(303,718,cs),
(194,718,o),
(106,714,o),
(-10,696,c),
(-12,674,o),
(-10,633,o),
(1,613,c),
(122,632,o),
(209,634,o),
(306,634,cs),
(447,634,o),
(516,586,o),
(516,487,cs),
(516,364,o),
(408,336,o),
(295,336,cs),
(205,336,l),
(205,251,l)
);
},
{
closed = 1;
nodes = (
(151,-6,o),
(183,-6,o),
(213,0,c),
(213,648,l),
(121,648,l),
(121,0,l)
);
}
);
width = 644;
}
);
metricLeft = B.ss05;
},
{
color = 3;
export = 0;
glyphname = Q.ss05;
kernLeft = O;
kernRight = O;
lastChange = "2023-02-13 11:45:07 +0000";
layers = (
{
layerId = "6DBDBFCA-DF26-4695-B281-FA25C6EAD80F";
shapes = (
{
closed = 1;
nodes = (
(845,-148,o),
(875,-140,o),
(894,-127,c),
(894,-100,o),
(883,-67,o),
(868,-51,c),
(849,-58,o),
(828,-62,o),
(809,-62,cs),
(745,-62,o),
(666,-10,o),
(621,17,cs),
(486,98,o),
(449,115,o),
(371,115,cs),
(309,115,o),
(239,87,o),
(224,78,c),
(286,8,l),
(302,19,o),
(338,29,o),
(370,29,cs),
(415,29,o),
(457,19,o),
(557,-44,cs),
(642,-97,o),
(726,-148,o),
(810,-148,cs)
);
},
{
ref = O;
}
);
width = 743;
}
);
metricLeft = O;
},
{
color = 6;
export = 0;
glyphname = R.ss05;
kernLeft = H;
lastChange = "2023-02-13 11:45:07 +0000";
layers = (
{
layerId = "6DBDBFCA-DF26-4695-B281-FA25C6EAD80F";
shapes = (
{
closed = 1;
nodes = (
(452,263,o),
(592,351,o),
(592,495,cs),
(592,656,o),
(467,718,o),
(293,718,cs),
(201,718,o),
(90,712,o),
(-10,696,c),
(-12,674,o),
(-10,633,o),
(1,613,c),
(126,632,o),
(217,634,o),
(297,634,cs),
(436,634,o),
(500,588,o),
(500,493,cs),
(500,388,o),
(381,339,o),
(206,339,c),
(233,263,l)
);
},
{
closed = 1;
nodes = (
(182,-5,o),
(197,-2,o),
(212,0,c),
(212,648,l),
(121,648,l),
(121,0,l),
(136,-3,o),
(151,-5,o),
(167,-5,cs)
);
},
{
closed = 1;
nodes = (
(654,-2,o),
(678,36,o),
(678,64,c),
(630,86,o),
(576,130,o),
(536,165,cs),
(459,231,ls),
(389,291,o),
(293,341,o),
(201,341,c),
(162,263,l),
(271,263,o),
(307,242,o),
(374,184,cs),
(493,81,ls),
(533,45,o),
(595,0,o),
(638,-14,c)
);
}
);
width = 694;
}
);
metricLeft = B.ss05;
},
{
color = 6;
export = 0;
glyphname = S.ss05;
kernLeft = S;
kernRight = S;
lastChange = "2023-02-13 11:45:07 +0000";
layers = (
{
layerId = "6DBDBFCA-DF26-4695-B281-FA25C6EAD80F";
shapes = (
{
closed = 1;
nodes = (
(425,-14,o),
(533,58,o),
(533,186,cs),
(533,316,o),
(418,361,o),
(352,386,cs),
(280,415,ls),
(226,436,o),
(164,466,o),
(164,536,cs),
(164,601,o),
(219,633,o),
(282,633,cs),
(364,633,o),
(412,590,o),
(426,509,c),
(451,506,o),
(482,510,o),
(511,529,c),
(496,656,o),
(401,718,o),
(284,718,cs),
(160,718,o),
(70,638,o),
(70,537,cs),
(70,406,o),
(189,355,o),
(241,335,cs),
(318,304,ls),
(381,280,o),
(440,255,o),
(440,186,cs),
(440,114,o),
(379,72,o),
(293,72,cs),
(202,72,o),
(132,122,o),
(101,198,c),
(70,200,o),
(33,176,o),
(23,153,c),
(70,48,o),
(171,-14,o),
(289,-14,cs)
);
}
);
width = 579;
}
);
},
{
color = 6;
export = 0;
glyphname = V.ss05;
kernLeft = V;
kernRight = V;
lastChange = "2023-02-13 11:45:07 +0000";
layers = (
{
layerId = "6DBDBFCA-DF26-4695-B281-FA25C6EAD80F";
shapes = (
{
closed = 1;
nodes = (
(299,-5,o),
(333,-6,o),
(357,0,c),
(501,372,ls),
(562,530,o),
(592,607,o),
(661,662,c),
(650,689,o),
(626,715,o),
(603,721,c),
(523,664,o),
(484,568,o),
(421,403,cs),
(276,21,l),
(280,0,l)
);
},
{
closed = 1;
nodes = (
(357,37,l),
(86,715,l),
(56,712,o),
(26,704,o),
(5,682,c),
(280,0,l)
);
}
);
width = 638;
}
);
},
{
color = 6;
export = 0;
glyphname = W.ss05;
kernLeft = W;
kernRight = W;
lastChange = "2023-02-13 11:45:07 +0000";
layers = (
{
layerId = "6DBDBFCA-DF26-4695-B281-FA25C6EAD80F";
shapes = (
{
closed = 1;
nodes = (
(249,-5,o),
(294,-5,o),
(317,0,c),
(500,502,l),
(466,502,l),
(648,0,l),
(664,-2,o),
(707,-5,o),
(733,0,c),
(824,383,ls),
(864,547,o),
(889,625,o),
(948,691,c),
(933,716,o),
(907,739,o),
(885,742,c),
(812,691,o),
(785,580,o),
(743,404,cs),
(670,101,l),
(699,104,l),
(524,586,l),
(496,591,o),
(469,591,o),
(441,586,c),
(267,108,l),
(297,106,l),
(149,715,l),
(115,716,o),
(88,709,o),
(64,698,c),
(232,0,l)
);
}
);
width = 957;
}
);
},
{
color = 6;
export = 0;
glyphname = X.ss05;
kernLeft = X;
kernRight = X;
lastChange = "2023-02-13 11:45:07 +0000";
layers = (
{
layerId = "6DBDBFCA-DF26-4695-B281-FA25C6EAD80F";
shapes = (
{
closed = 1;
nodes = (
(636,-14,o),
(660,-8,o),
(677,5,c),
(675,24,o),
(663,63,o),
(650,79,c),
(642,76,o),
(635,73,o),
(624,73,cs),
(564,73,o),
(532,139,o),
(475,239,cs),
(271,598,ls),
(232,666,o),
(197,718,o),
(109,718,cs),
(80,718,o),
(56,713,o),
(34,705,c),
(34,681,o),
(41,646,o),
(54,626,c),
(65,629,o),
(81,632,o),
(92,632,cs),
(147,632,o),
(166,602,o),
(201,541,cs),
(426,140,ls),
(473,58,o),
(515,-14,o),
(615,-14,cs)
);
},
{
closed = 1;
nodes = (
(353,310,l),
(306,401,l),
(46,39,l),
(63,11,o),
(89,-5,o),
(120,-14,c)
);
},
{
closed = 1;
nodes = (
(624,662,l),
(603,685,o),
(579,705,o),
(549,718,c),
(323,400,l),
(370,310,l)
);
}
);
width = 677;
}
);
},
{
color = 6;
export = 0;
glyphname = Y.ss05;
kernLeft = Y;
lastChange = "2023-02-13 11:45:07 +0000";
layers = (
{
layerId = "6DBDBFCA-DF26-4695-B281-FA25C6EAD80F";
shapes = (
{
closed = 1;
nodes = (
(520,-314,o),
(617,-212,o),
(617,-23,cs),
(617,550,l),
(523,530,l),
(523,-14,ls),
(523,-126,o),
(480,-226,o),
(338,-226,cs),
(249,-226,o),
(171,-180,o),
(151,-165,c),
(122,-180,o),
(104,-215,o),
(104,-240,c),
(135,-270,o),
(223,-314,o),
(341,-314,cs)
);
},
{
closed = 1;
nodes = (
(505,-14,o),
(617,107,o),
(617,362,cs),
(617,705,l),
(600,707,o),
(584,708,o),
(567,708,cs),
(553,708,o),
(541,707,o),
(523,705,c),
(523,334,ls),
(523,153,o),
(456,78,o),
(333,78,cs),
(224,78,o),
(169,153,o),
(169,310,cs),
(169,705,l),
(154,707,o),
(140,708,o),
(125,708,cs),
(108,708,o),
(92,707,o),
(76,705,c),
(76,295,ls),
(76,107,o),
(161,-14,o),
(327,-14,cs)
);
}
);
width = 718;
}
);
},
{
color = 6;
export = 0;
glyphname = Z.ss05;
kernLeft = Z;
kernRight = Z;
lastChange = "2023-02-13 11:45:07 +0000";
layers = (
{
layerId = "6DBDBFCA-DF26-4695-B281-FA25C6EAD80F";
shapes = (
{
closed = 1;
nodes = (
(109,10,o),
(152,61,o),
(250,212,cs),
(442,491,ls),
(496,569,o),
(531,619,o),
(576,629,c),
(586,647,o),
(583,687,o),
(571,708,c),
(479,698,o),
(441,643,o),
(343,498,cs),
(152,220,ls),
(99,138,o),
(54,90,o),
(-2,79,c),
(-12,61,o),
(-9,21,o),
(3,0,c)
);
},
{
closed = 1;
nodes = (
(531,-8,o),
(603,59,o),
(630,156,c),
(611,175,o),
(580,186,o),
(553,188,c),
(533,131,o),
(507,80,o),
(414,80,cs),
(347,80,o),
(194,91,o),
(121,91,cs),
(98,91,o),
(54,89,o),
(32,87,c),
(3,0,l),
(34,2,o),
(60,3,o),
(121,3,cs),
(204,3,o),
(343,-8,o),
(416,-8,cs)
);
},
{
closed = 1;
nodes = (
(108,580,o),
(134,630,o),
(228,630,cs),
(279,630,o),
(392,618,o),
(453,618,cs),
(479,618,o),
(520,619,o),
(542,621,c),
(571,708,l),
(540,706,o),
(514,705,o),
(453,705,cs),
(382,705,o),
(282,718,o),
(226,718,cs),
(111,718,o),
(38,652,o),
(11,555,c),
(30,536,o),
(62,524,o),
(89,522,c)
);
}
);
width = 608;
}
);
},
{
color = 6;
glyphname = C_u.liga;
kernLeft = C;
lastChange = "2023-02-13 11:45:07 +0000";
layers = (
{
anchors = (
{
name = bottom_1;
pos = (380,0);
},
{
name = top_1;
pos = (335,705);
},
{
name = top_2;
pos = (976,468);
}
);
layerId = "6DBDBFCA-DF26-4695-B281-FA25C6EAD80F";
shapes = (
{
closed = 1;
nodes = (
(670,-14,o),
(770,216,o),
(790,277,c),
(758,289,l),
(758,238,ls),
(758,76,o),
(825,-14,o),
(956,-14,cs),
(1034,-14,o),
(1094,13,o),
(1132,66,c),
(1155,13,o),
(1195,-14,o),
(1248,-14,c),
(1258,6,o),
(1260,21,o),
(1260,41,cs),
(1260,50,o),
(1258,65,o),
(1255,71,c),
(1211,71,o),
(1194,112,o),
(1194,182,cs),
(1194,468,l),
(1178,471,o),
(1163,474,o),
(1147,474,cs),
(1133,474,o),
(1119,471,o),
(1104,468,c),
(1104,281,ls),
(1104,125,o),
(1042,74,o),
(963,74,cs),
(877,74,o),
(848,132,o),
(848,239,cs),
(848,468,l),
(831,471,o),
(815,473,o),
(802,473,cs),
(786,473,o),
(771,471,o),
(758,468,c),
(758,462,l),
(741,321,o),
(637,74,o),
(407,74,cs),
(235,74,o),
(155,203,o),
(155,359,cs),
(155,537,o),
(247,635,o),
(379,635,cs),
(453,635,o),
(509,602,o),
(544,574,c),
(566,590,o),
(587,625,o),
(589,648,c),
(542,689,o),
(468,723,o),
(374,723,cs),
(171,723,o),
(60,551,o),
(60,359,cs),
(60,152,o),
(183,-14,o),
(407,-14,cs)
);
}
);
width = 1232;
}
);
metricLeft = C;
metricRight = u;
},
{
color = 10;
glyphname = b;
kernLeft = no_kerning;
kernRight = no_kerning;
lastChange = "2023-02-13 11:45:07 +0000";
layers = (
{
background = {
anchors = (
{
name = "#fina";
pos = (514,400);
}
);
shapes = (
{
closed = 1;
nodes = (
(334,210,o),
(406,410,o),
(406,656,c),
(380,668,o),
(348,669,o),
(320,660,c),
(320,461,o),
(269,281,o),
(183,176,c),
(223,94,l)
);
},
{
closed = 1;
nodes = (
(76,-15,o),
(150,23,o),
(213,95,c),
(172,176,l),
(123,108,o),
(66,71,o),
(5,71,cs),
(-17,71,o),
(-31,55,o),
(-31,29,cs),
(-31,4,o),
(-19,-14,o),
(-1,-14,cs)
);
}
);
};
layerId = "6DBDBFCA-DF26-4695-B281-FA25C6EAD80F";
shapes = (
{
alignment = -1;
ref = _part.b;
},
{
alignment = -1;
ref = _part.b.in;
}
);
width = 650;
},
{
associatedMasterId = "6DBDBFCA-DF26-4695-B281-FA25C6EAD80F";
layerId = "737B79E5-B6B2-4699-A290-9FB82310E0D7";
name = "10. Feb 23, 17:47";
shapes = (
{
alignment = -1;
pos = (8,0);
ref = _part.b;
},
{
alignment = -1;
ref = _part.l.in;
}
);
width = 636;
}
);
metricLeft = n;
unicode = 98;
},
{
color = 6;
glyphname = e.init;
kernLeft = o;
kernRight = no_kerning;
lastChange = "2023-02-13 11:45:07 +0000";
layers = (
{
anchors = (
{
name = "#fina";
pos = (286,70);
},
{
name = top;
pos = (224,468);
}
);
layerId = "6DBDBFCA-DF26-4695-B281-FA25C6EAD80F";
shapes = (
{
closed = 1;
nodes = (
(302,-14,o),
(316,3,o),
(316,28,cs),
(316,54,o),
(304,70,o),
(286,70,cs),
(211,70,o),
(158,102,o),
(140,158,c),
(137,178,l),
(126,195,o),
(121,220,o),
(121,251,cs),
(121,338,o),
(163,400,o),
(221,400,cs),
(260,400,o),
(287,373,o),
(287,332,cs),
(287,266,o),
(225,224,o),
(109,211,c),
(115,136,l),
(261,136,o),
(373,219,o),
(373,327,cs),
(373,417,o),
(310,482,o),
(224,482,cs),
(117,482,o),
(35,383,o),
(35,256,cs),
(35,202,o),
(46,152,o),
(68,111,cs),
(109,31,o),
(185,-14,o),
(281,-14,cs)
);
}
);
width = 388;
}
);
},
{
color = 3;
glyphname = o.init;
kernLeft = o;
kernRight = no_kerning;
lastChange = "2023-02-13 11:45:07 +0000";
layers = (
{
layerId = "6DBDBFCA-DF26-4695-B281-FA25C6EAD80F";
shapes = (
{
ref = _part.o;
},
{
closed = 1;
nodes = (
(382,382,o),
(299,429,o),
(193,420,c),
(223,347,o),
(304,302,o),
(405,302,c)
);
}
);
width = 548;
}
);
metricLeft = o.isol;
metricRight = o;
},
{
color = 3;
glyphname = x.init;
kernLeft = o;
kernRight = no_kerning;
lastChange = "2023-02-13 11:45:07 +0000";
layers = (
{
layerId = "6DBDBFCA-DF26-4695-B281-FA25C6EAD80F";
shapes = (
{
closed = 1;
nodes = (
(141,357,o),
(170,397,o),
(216,397,c),
(225,422,o),
(226,457,o),
(220,482,c),
(139,482,o),
(83,433,o),
(29,339,c),
(45,316,o),
(66,299,o),
(94,286,c)
);
},
{
pos = (-136,0);
ref = _part.x;
}
);
width = 590;
}
);
metricRight = x;
},
{
color = 6;
glyphname = e.medi.cv01;
kernLeft = no_kerning;
kernRight = no_kerning;
lastChange = "2023-02-13 11:45:07 +0000";
layers = (
{
anchors = (
{
name = "#fina";
pos = (331,70);
},
{
name = top;
pos = (244,468);
}
);
layerId = "6DBDBFCA-DF26-4695-B281-FA25C6EAD80F";
shapes = (
{
closed = 1;
nodes = (
(347,-14,o),
(360,2,o),
(360,27,cs),
(360,52,o),
(348,70,o),
(331,70,cs),
(276,70,o),
(235,90,o),
(214,127,c),
(209,148,l),
(183,166,o),
(167,215,o),
(167,274,cs),
(167,348,o),
(205,400,o),
(259,400,cs),
(298,400,o),
(322,374,o),
(322,332,cs),
(322,271,o),
(275,217,o),
(179,167,c),
(223,99,l),
(344,166,o),
(408,246,o),
(408,332,cs),
(408,418,o),
(344,482,o),
(259,482,cs),
(157,482,o),
(81,392,o),
(81,271,cs),
(81,204,o),
(100,134,o),
(130,92,c),
(141,76,l),
(175,21,o),
(245,-14,o),
(326,-14,cs)
);
},
{
closed = 1;
nodes = (
(-12,-14,o),
(88,18,o),
(194,83,c),
(154,159,l),
(62,101,o),
(-29,70,o),
(-103,70,cs),
(-124,70,o),
(-138,54,o),
(-138,27,cs),
(-138,4,o),
(-125,-14,o),
(-107,-14,cs)
);
}
);
width = 434;
}
);
},
{
color = 3;
glyphname = f.medi.cv01;
kernLeft = no_kerning;
kernRight = no_kerning;
lastChange = "2023-02-13 11:45:07 +0000";
layers = (
{
layerId = "6DBDBFCA-DF26-4695-B281-FA25C6EAD80F";
shapes = (
{
closed = 1;
nodes = (
(309,233,o),
(402,447,o),
(402,693,c),
(384,700,o),
(345,700,o),
(318,694,c),
(318,506,o),
(250,316,o),
(151,227,c),
(170,127,l)
);
},
{
closed = 1;
nodes = (
(-10,-14,o),
(89,34,o),
(144,111,c),
(113,196,l),
(59,120,o),
(-26,70,o),
(-103,70,cs),
(-124,70,o),
(-138,54,o),
(-138,29,cs),
(-138,2,o),
(-129,-14,o),
(-108,-14,cs)
);
},
{
pos = (10,0);
ref = _part.f;
}
);
width = 418;
}
);
metricRight = f;
},
{
color = 3;
glyphname = x.medi.cv01;
kernLeft = no_kerning;
kernRight = no_kerning;
lastChange = "2023-02-13 11:45:07 +0000";
layers = (
{
layerId = "6DBDBFCA-DF26-4695-B281-FA25C6EAD80F";
shapes = (
{
closed = 1;
nodes = (
(4,-14,o),
(73,34,o),
(148,159,cs),
(249,330,ls),
(279,383,o),
(313,397,o),
(344,397,c),
(350,420,o),
(351,458,o),
(347,482,c),
(281,482,o),
(224,451,o),
(170,360,cs),
(80,209,ls),
(20,108,o),
(-30,70,o),
(-102,70,cs),
(-123,70,o),
(-137,54,o),
(-137,29,cs),
(-137,4,o),
(-125,-14,o),
(-107,-14,cs)
);
},
{
pos = (-8,0);
ref = _part.x;
}
);
width = 718;
}
);
metricLeft = n.medi.cv01;
metricRight = x;
},
{
color = 3;
glyphname = t.fina.cv02;
kernLeft = no_kerning;
kernRight = t;
lastChange = "2023-02-13 12:01:33 +0000";
layers = (
{
layerId = "6DBDBFCA-DF26-4695-B281-FA25C6EAD80F";
shapes = (
{
closed = 1;
nodes = (
(285,-14,o),
(329,12,o),
(351,39,c),
(350,61,o),
(328,91,o),
(306,99,c),
(285,80,o),
(264,70,o),
(244,70,cs),
(191,70,o),
(183,123,o),
(183,170,cs),
(183,285,l),
(92,285,l),
(92,166,ls),
(92,62,o),
(127,-14,o),
(232,-14,cs)
);
},
{
ref = _part.t.in.cv02;
}
);
width = 334;
}
);
metricLeft = t.medi.cv02;
metricRight = t.fina;
},
{
color = 6;
glyphname = e.medi.cv02;
kernLeft = no_kerning;
kernRight = no_kerning;
lastChange = "2023-02-13 11:45:07 +0000";
layers = (
{
anchors = (
{
name = "#fina";
pos = (293,70);
},
{
name = top;
pos = (228,488);
}
);
layerId = "6DBDBFCA-DF26-4695-B281-FA25C6EAD80F";
shapes = (
{
closed = 1;
nodes = (
(308,-14,o),
(322,2,o),
(322,27,cs),
(322,52,o),
(310,70,o),
(293,70,cs),
(190,70,o),
(124,145,o),
(124,264,c),
(124,281,l),
(124,382,o),
(172,450,o),
(244,450,cs),
(283,450,o),
(309,427,o),
(309,392,cs),
(309,341,o),
(248,309,o),
(150,309,cs),
(132,309,o),
(111,313,o),
(94,319,c),
(97,236,l),
(114,232,o),
(137,230,o),
(158,230,cs),
(302,230,o),
(395,296,o),
(395,398,cs),
(395,473,o),
(332,531,o),
(249,531,cs),
(130,531,o),
(38,426,o),
(38,291,c),
(37,264,l),
(43,91,o),
(137,-14,o),
(287,-14,cs)
);
},
{
closed = 1;
nodes = (
(-119,413,o),
(-129,418,o),
(-138,418,cs),
(-157,418,o),
(-177,393,o),
(-177,371,cs),
(-177,360,o),
(-173,351,o),
(-164,343,cs),
(-99,282,o),
(0,237,o),
(70,237,c),
(70,323,l),
(23,323,o),
(-56,358,o),
(-105,401,cs)
);
}
);
visible = 1;
width = 395;
}
);
},
{
color = 3;
glyphname = f.medi.cv02;
kernLeft = no_kerning;
kernRight = no_kerning;
lastChange = "2023-02-13 11:45:07 +0000";
layers = (
{
layerId = "6DBDBFCA-DF26-4695-B281-FA25C6EAD80F";
shapes = (
{
alignment = -1;
pos = (-40,0);
ref = _part.f;
},
{
closed = 1;
nodes = (
(276,394,o),
(352,524,o),
(352,693,c),
(332,700,o),
(294,701,o),
(268,694,c),
(268,568,o),
(217,463,o),
(104,400,c),
(109,314,l)
);
},
{
closed = 1;
nodes = (
(18,291,o),
(55,298,o),
(81,310,c),
(73,397,l),
(49,382,o),
(16,373,o),
(-20,373,cs),
(-52,373,o),
(-84,382,o),
(-109,397,cs),
(-122,406,o),
(-129,409,o),
(-136,409,cs),
(-155,409,o),
(-172,389,o),
(-172,366,cs),
(-172,348,o),
(-161,332,o),
(-141,321,cs),
(-108,302,o),
(-64,291,o),
(-23,291,cs)
);
}
);
width = 368;
}
);
metricLeft = l.medi.cv02;
metricRight = f;
},
{
color = 3;
glyphname = j.medi.cv02;
kernLeft = no_kerning;
kernRight = no_kerning;
lastChange = "2023-02-13 11:45:07 +0000";
layers = (
{
layerId = "6DBDBFCA-DF26-4695-B281-FA25C6EAD80F";
shapes = (
{
pos = (-121,0);
ref = _part.j;
},
{
closed = 1;
nodes = (
(-145,399,o),
(-158,383,o),
(-158,358,cs),
(-158,332,o),
(-145,315,o),
(-125,315,cs),
(-21,315,o),
(97,345,o),
(161,387,c),
(140,426,l),
(140,-9,l),
(230,-9,l),
(230,458,l),
(207,475,o),
(178,481,o),
(140,478,c),
(85,430,o),
(-21,399,o),
(-125,399,cs)
);
}
);
width = 358;
}
);
metricRight = j;
},
{
color = 3;
glyphname = l.medi.cv02;
kernLeft = no_kerning;
kernRight = no_kerning;
lastChange = "2023-02-13 11:57:02 +0000";
layers = (
{
layerId = "6DBDBFCA-DF26-4695-B281-FA25C6EAD80F";
shapes = (
{
closed = 1;
nodes = (
(305,-14,o),
(319,3,o),
(319,28,cs),
(319,53,o),
(307,71,o),
(290,71,cs),
(204,71,o),
(150,156,o),
(120,347,cs),
(110,407,o),
(104,499,o),
(104,598,c),
(60,601,o),
(32,599,o),
(17,592,c),
(17,525,o),
(22,439,o),
(32,353,cs),
(57,116,o),
(148,-14,o),
(284,-14,cs)
);
},
{
pos = (9,0);
ref = _part.l.in.cv02;
},
{
pos = (-70,0);
ref = _part.l;
}
);
width = 291;
}
);
},
{
color = 3;
glyphname = p.medi.cv02;
kernLeft = no_kerning;
kernRight = no_kerning;
lastChange = "2023-02-13 11:45:07 +0000";
layers = (
{
layerId = "6DBDBFCA-DF26-4695-B281-FA25C6EAD80F";
shapes = (
{
pos = (-88,0);
ref = _part.p;
},
{
closed = 1;
nodes = (
(243,496,l),
(225,511,o),
(193,523,o),
(167,520,c),
(105,479,o),
(-15,412,o),
(-114,398,cs),
(-134,395,o),
(-147,388,o),
(-147,360,cs),
(-147,335,o),
(-134,317,o),
(-114,317,cs),
(-18,317,o),
(111,383,o),
(173,424,c),
(154,457,l),
(154,297,l),
(243,297,l)
);
},
{
pos = (331,0);
ref = _part.n.out;
}
);
width = 598;
}
);
metricRight = n;
},
{
color = 3;
glyphname = t.medi.cv02;
kernLeft = no_kerning;
kernRight = no_kerning;
lastChange = "2023-02-13 11:45:07 +0000";
layers = (
{
layerId = "6DBDBFCA-DF26-4695-B281-FA25C6EAD80F";
shapes = (
{
ref = _part.t.in.cv02;
},
{
closed = 1;
nodes = (
(289,-14,o),
(303,3,o),
(303,28,cs),
(303,55,o),
(292,71,o),
(274,71,cs),
(210,71,o),
(183,134,o),
(183,255,cs),
(183,260,l),
(156,268,o),
(126,271,o),
(92,260,c),
(92,245,ls),
(92,83,o),
(144,-14,o),
(267,-14,cs)
);
}
);
width = 279;
}
);
},
{
color = 3;
glyphname = x.medi.cv02;
kernLeft = no_kerning;
kernRight = no_kerning;
lastChange = "2023-02-13 11:45:07 +0000";
layers = (
{
layerId = "6DBDBFCA-DF26-4695-B281-FA25C6EAD80F";
shapes = (
{
pos = (-160,0);
ref = _part.x;
},
{
closed = 1;
nodes = (
(-122,398,o),
(-134,381,o),
(-134,358,cs),
(-134,332,o),
(-121,315,o),
(-101,315,cs),
(-68,315,o),
(-6,332,o),
(74,364,cs),
(89,370,ls),
(136,389,o),
(165,397,o),
(192,397,c),
(200,424,o),
(201,454,o),
(196,482,c),
(161,482,o),
(122,469,o),
(53,442,cs),
(35,435,ls),
(-28,410,o),
(-74,398,o),
(-105,398,cs)
);
}
);
width = 566;
}
);
metricRight = x;
},
{
color = 3;
glyphname = y.medi.cv02;
kernLeft = no_kerning;
kernRight = no_kerning;
lastChange = "2023-02-13 11:45:07 +0000";
layers = (
{
layerId = "6DBDBFCA-DF26-4695-B281-FA25C6EAD80F";
shapes = (
{
closed = 1;
nodes = (
(513,0,l),
(513,281,l),
(425,281,l),
(425,0,l)
);
},
{
pos = (-17,0);
ref = _part.boucle.bas;
},
{
pos = (-39,0);
ref = _part.i.in.cv02;
},
{
pos = (-63,0);
ref = _part.u;
}
);
width = 641;
}
);
metricLeft = i.medi.cv02;
metricRight = g;
},
{
color = 6;
glyphname = e.medi.cv03;
kernLeft = no_kerning;
kernRight = no_kerning;
lastChange = "2023-02-13 11:45:07 +0000";
layers = (
{
anchors = (
{
name = "#fina";
pos = (271,70);
},
{
name = top;
pos = (183,468);
}
);
layerId = "6DBDBFCA-DF26-4695-B281-FA25C6EAD80F";
shapes = (
{
closed = 1;
nodes = (
(287,-14,o),
(301,3,o),
(301,28,cs),
(301,55,o),
(290,70,o),
(271,70,cs),
(208,70,o),
(154,104,o),
(143,151,c),
(134,171,l),
(116,189,o),
(105,232,o),
(105,279,cs),
(105,350,o),
(144,400,o),
(198,400,cs),
(236,400,o),
(260,376,o),
(260,338,cs),
(260,298,o),
(218,256,o),
(106,185,c),
(142,115,l),
(282,194,o),
(347,264,o),
(347,336,cs),
(347,420,o),
(285,482,o),
(201,482,cs),
(94,482,o),
(19,395,o),
(19,271,cs),
(19,218,o),
(30,172,o),
(54,125,c),
(64,101,l),
(108,27,o),
(179,-14,o),
(265,-14,cs)
);
},
{
closed = 1;
nodes = (
(-143,-63,o),
(-135,-61,o),
(-125,-54,cs),
(94,87,l),
(50,161,l),
(-173,18,ls),
(-187,9,o),
(-192,2,o),
(-192,-10,cs),
(-194,-32,o),
(-172,-61,o),
(-152,-62,cs)
);
}
);
width = 373;
}
);
metricRight = e;
},
{
color = 3;
glyphname = f.medi.cv03;
kernLeft = no_kerning;
kernRight = no_kerning;
lastChange = "2023-02-13 11:45:07 +0000";
layers = (
{
anchors = (
{
name = "#fina";
pos = (363,71);
}
);
layerId = "6DBDBFCA-DF26-4695-B281-FA25C6EAD80F";
shapes = (
{
closed = 1;
nodes = (
(246,281,o),
(348,468,o),
(348,693,c),
(329,704,o),
(295,704,o),
(264,694,c),
(264,523,o),
(183,353,o),
(103,264,c),
(123,167,l)
);
},
{
closed = 1;
nodes = (
(-67,-4,o),
(70,99,o),
(103,179,c),
(85,284,l),
(34,178,o),
(-148,34,o),
(-177,7,cs),
(-192,-7,o),
(-201,-18,o),
(-200,-31,cs),
(-201,-50,o),
(-172,-78,o),
(-150,-79,cs),
(-142,-79,o),
(-136,-73,o),
(-126,-63,cs)
);
},
{
pos = (-44,0);
ref = _part.f;
}
);
width = 364;
}
);
metricRight = f;
},
{
color = 3;
glyphname = j.medi.cv03;
kernLeft = no_kerning;
kernRight = no_kerning;
lastChange = "2023-02-13 11:45:07 +0000";
layers = (
{
layerId = "6DBDBFCA-DF26-4695-B281-FA25C6EAD80F";
shapes = (
{
pos = (-80,0);
ref = _part.j;
},
{
closed = 1;
nodes = (
(42,81,o),
(149,227,o),
(217,351,c),
(181,346,l),
(181,-33,l),
(271,-34,l),
(271,465,l),
(253,476,o),
(213,479,o),
(187,474,c),
(76,270,o),
(-3,163,o),
(-162,12,cs),
(-179,-4,o),
(-186,-14,o),
(-186,-24,cs),
(-186,-44,o),
(-164,-71,o),
(-138,-71,cs),
(-129,-71,o),
(-123,-67,o),
(-109,-55,cs)
);
}
);
width = 399;
}
);
metricRight = j;
},
{
color = 3;
glyphname = x.medi.cv03;
kernLeft = no_kerning;
kernRight = no_kerning;
lastChange = "2023-02-13 11:45:07 +0000";
layers = (
{
layerId = "6DBDBFCA-DF26-4695-B281-FA25C6EAD80F";
shapes = (
{
pos = (-118,0);
ref = _part.x;
},
{
closed = 1;
nodes = (
(-69,-18,o),
(-31,30,o),
(40,156,cs),
(129,314,ls),
(164,375,o),
(195,397,o),
(234,397,c),
(242,426,o),
(243,460,o),
(237,482,c),
(161,482,o),
(110,445,o),
(48,336,cs),
(-45,174,ls),
(-95,87,o),
(-125,49,o),
(-163,25,cs),
(-190,8,o),
(-193,4,o),
(-193,-14,cs),
(-193,-39,o),
(-171,-69,o),
(-153,-69,cs),
(-149,-69,o),
(-143,-67,o),
(-136,-62,cs)
);
}
);
width = 608;
}
);
metricRight = x;
},
{
color = 6;
glyphname = zero;
lastChange = "2023-02-13 11:45:07 +0000";
layers = (
{
layerId = "6DBDBFCA-DF26-4695-B281-FA25C6EAD80F";
shapes = (
{
closed = 1;
nodes = (
(507,-14,o),
(598,139,o),
(598,350,cs),
(598,567,o),
(509,718,o),
(323,718,cs),
(136,718,o),
(45,567,o),
(45,350,cs),
(45,139,o),
(138,-14,o),
(321,-14,cs)
);
},
{
closed = 1;
nodes = (
(193,74,o),
(139,186,o),
(139,350,cs),
(139,520,o),
(193,630,o),
(323,630,cs),
(452,630,o),
(504,520,o),
(504,350,cs),
(504,186,o),
(452,74,o),
(321,74,cs)
);
}
);
width = 643;
}
);
unicode = 48;
},
{
color = 6;
glyphname = one;
lastChange = "2023-02-13 12:40:39 +0000";
layers = (
{
layerId = "6DBDBFCA-DF26-4695-B281-FA25C6EAD80F";
shapes = (
{
closed = 1;
nodes = (
(293,-3,o),
(309,-2,o),
(325,0,c),
(325,698,l),
(305,710,o),
(274,717,o),
(250,715,c),
(183,670,o),
(121,632,o),
(42,586,c),
(46,557,o),
(60,530,o),
(81,509,c),
(117,526,o),
(169,554,o),
(242,602,c),
(231,622,l),
(231,0,l),
(247,-2,o),
(262,-3,o),
(277,-3,cs)
);
}
);
width = 442;
}
);
unicode = 49;
},
{
color = 6;
glyphname = two;
lastChange = "2023-02-13 11:45:07 +0000";
layers = (
{
layerId = "6DBDBFCA-DF26-4695-B281-FA25C6EAD80F";
shapes = (
{
closed = 1;
nodes = (
(153,45,o),
(306,174,o),
(388,268,cs),
(440,328,o),
(505,409,o),
(505,509,cs),
(505,638,o),
(416,723,o),
(286,723,cs),
(167,723,o),
(60,656,o),
(34,509,c),
(62,494,o),
(92,487,o),
(123,486,c),
(136,590,o),
(206,635,o),
(283,635,cs),
(354,635,o),
(412,590,o),
(412,509,cs),
(412,427,o),
(353,360,o),
(298,300,cs),
(254,254,o),
(129,132,o),
(28,65,c),
(30,36,o),
(39,7,o),
(51,-1,c)
);
},
{
closed = 1;
nodes = (
(447,-14,o),
(511,0,o),
(545,25,c),
(545,56,o),
(536,81,o),
(516,101,c),
(485,87,o),
(422,72,o),
(385,72,cs),
(311,72,o),
(257,88,o),
(198,88,cs),
(167,88,o),
(117,81,o),
(98,76,c),
(51,-1,l),
(81,5,o),
(131,8,o),
(154,8,cs),
(244,8,o),
(307,-14,o),
(381,-14,cs)
);
}
);
width = 567;
}
);
unicode = 50;
},
{
color = 6;
glyphname = three;
lastChange = "2023-02-13 11:45:07 +0000";
layers = (
{
layerId = "6DBDBFCA-DF26-4695-B281-FA25C6EAD80F";
shapes = (
{
closed = 1;
nodes = (
(418,-14,o),
(495,89,o),
(495,182,cs),
(495,282,o),
(427,360,o),
(319,380,c),
(311,328,l),
(435,364,o),
(476,449,o),
(476,526,cs),
(476,626,o),
(400,723,o),
(264,723,cs),
(145,723,o),
(64,648,o),
(42,559,c),
(67,540,o),
(95,529,o),
(125,528,c),
(143,599,o),
(198,636,o),
(266,636,cs),
(335,636,o),
(385,592,o),
(385,519,cs),
(385,445,o),
(327,395,o),
(244,395,cs),
(173,395,l),
(169,380,o),
(168,367,o),
(168,352,cs),
(168,338,o),
(169,325,o),
(173,312,c),
(244,312,ls),
(350,312,o),
(404,267,o),
(404,193,cs),
(404,120,o),
(348,73,o),
(268,73,cs),
(177,73,o),
(127,121,o),
(101,160,c),
(73,148,o),
(46,122,o),
(34,100,c),
(78,29,o),
(171,-14,o),
(264,-14,cs)
);
}
);
width = 535;
}
);
unicode = 51;
},
{
color = 6;
glyphname = four;
lastChange = "2023-02-13 11:45:07 +0000";
layers = (
{
layerId = "6DBDBFCA-DF26-4695-B281-FA25C6EAD80F";
shapes = (
{
closed = 1;
nodes = (
(108,242,l),
(308,688,l),
(295,704,o),
(259,722,o),
(229,722,c),
(18,249,l),
(18,231,o),
(26,198,o),
(35,184,c)
);
},
{
closed = 1;
nodes = (
(539,184,l),
(542,198,o),
(544,212,o),
(544,226,cs),
(544,239,o),
(542,253,o),
(539,266,c),
(55,266,l),
(35,184,l)
);
},
{
closed = 1;
nodes = (
(394,-3,o),
(408,-2,o),
(424,0,c),
(424,466,l),
(408,468,o),
(394,469,o),
(378,469,cs),
(362,469,o),
(347,468,o),
(332,466,c),
(332,0,l),
(347,-2,o),
(362,-3,o),
(378,-3,cs)
);
}
);
width = 545;
}
);
unicode = 52;
},
{
color = 6;
glyphname = five;
lastChange = "2023-02-13 12:40:23 +0000";
layers = (
{
layerId = "6DBDBFCA-DF26-4695-B281-FA25C6EAD80F";
shapes = (
{
closed = 1;
nodes = (
(420,-14,o),
(496,107,o),
(496,212,cs),
(496,337,o),
(409,432,o),
(264,432,cs),
(211,432,o),
(171,423,o),
(142,413,c),
(183,378,l),
(222,621,l),
(458,621,l),
(466,637,o),
(466,685,o),
(458,705,c),
(151,705,l),
(96,379,l),
(109,359,o),
(127,342,o),
(147,327,c),
(170,336,o),
(207,346,o),
(255,346,cs),
(367,346,o),
(404,276,o),
(404,212,cs),
(404,134,o),
(348,73,o),
(260,73,cs),
(177,73,o),
(127,121,o),
(101,160,c),
(73,148,o),
(46,122,o),
(34,104,c),
(78,29,o),
(171,-14,o),
(255,-14,cs)
);
}
);
width = 530;
}
);
unicode = 53;
},
{
color = 6;
glyphname = six;
lastChange = "2023-02-13 11:45:07 +0000";
layers = (
{
layerId = "6DBDBFCA-DF26-4695-B281-FA25C6EAD80F";
shapes = (
{
closed = 1;
nodes = (
(427,-14,o),
(535,76,o),
(535,215,cs),
(535,318,o),
(459,423,o),
(316,423,cs),
(250,423,o),
(159,387,o),
(133,321,c),
(151,290,l),
(135,505,o),
(201,637,o),
(318,637,cs),
(370,637,o),
(414,611,o),
(440,553,c),
(467,555,o),
(497,572,o),
(513,594,c),
(474,681,o),
(403,723,o),
(324,723,cs),
(162,723,o),
(56,575,o),
(56,352,cs),
(56,106,o),
(152,-14,o),
(309,-14,cs)
);
},
{
closed = 1;
nodes = (
(223,72,o),
(171,134,o),
(171,206,cs),
(171,283,o),
(228,339,o),
(312,339,cs),
(391,339,o),
(444,283,o),
(444,206,cs),
(444,134,o),
(392,72,o),
(308,72,cs)
);
}
);
visible = 1;
width = 580;
}
);
unicode = 54;
},
{
color = 6;
glyphname = seven;
lastChange = "2023-02-13 11:45:07 +0000";
layers = (
{
layerId = "6DBDBFCA-DF26-4695-B281-FA25C6EAD80F";
shapes = (
{
closed = 1;
nodes = (
(484,629,l),
(406,676,l),
(164,20,l),
(183,1,o),
(213,-10,o),
(249,-11,c)
);
},
{
closed = 1;
nodes = (
(428,621,l),
(484,629,l),
(488,654,o),
(482,689,o),
(462,705,c),
(24,705,l),
(18,677,o),
(18,650,o),
(24,621,c)
);
}
);
width = 521;
}
);
unicode = 55;
},
{
color = 6;
glyphname = eight;
lastChange = "2023-02-13 11:45:07 +0000";
layers = (
{
layerId = "6DBDBFCA-DF26-4695-B281-FA25C6EAD80F";
shapes = (
{
closed = 1;
nodes = (
(437,-14,o),
(543,61,o),
(543,189,cs),
(543,311,o),
(459,363,o),
(365,389,cs),
(299,407,ls),
(234,424,o),
(170,462,o),
(170,536,cs),
(170,608,o),
(226,642,o),
(294,642,cs),
(362,642,o),
(418,608,o),
(418,536,cs),
(418,463,o),
(361,420,o),
(279,399,cs),
(216,383,ls),
(134,363,o),
(45,303,o),
(45,189,cs),
(45,64,o),
(147,-14,o),
(294,-14,cs)
);
},
{
closed = 1;
nodes = (
(197,68,o),
(135,112,o),
(135,192,cs),
(135,257,o),
(173,303,o),
(291,334,cs),
(338,346,ls),
(415,367,o),
(508,417,o),
(508,537,cs),
(508,641,o),
(418,723,o),
(294,723,cs),
(170,723,o),
(80,641,o),
(80,537,cs),
(80,415,o),
(173,355,o),
(250,338,cs),
(300,327,ls),
(415,302,o),
(453,255,o),
(453,192,cs),
(453,113,o),
(389,68,o),
(294,68,cs)
);
}
);
width = 588;
}
);
unicode = 56;
},
{
color = 6;
glyphname = nine;
lastChange = "2023-02-13 11:45:07 +0000";
layers = (
{
layerId = "6DBDBFCA-DF26-4695-B281-FA25C6EAD80F";
shapes = (
{
closed = 1;
nodes = (
(404,-14,o),
(523,89,o),
(523,357,cs),
(523,603,o),
(427,723,o),
(271,723,cs),
(152,723,o),
(45,634,o),
(45,493,cs),
(45,386,o),
(121,275,o),
(264,275,cs),
(329,275,o),
(421,316,o),
(447,388,c),
(429,420,l),
(444,159,o),
(365,72,o),
(263,72,cs),
(210,72,o),
(166,98,o),
(140,157,c),
(113,154,o),
(79,143,o),
(60,123,c),
(100,26,o),
(177,-14,o),
(263,-14,cs)
);
},
{
closed = 1;
nodes = (
(188,359,o),
(135,420,o),
(135,500,cs),
(135,575,o),
(188,637,o),
(272,637,cs),
(352,637,o),
(408,575,o),
(408,496,cs),
(408,420,o),
(352,359,o),
(267,359,cs)
);
}
);
width = 580;
}
);
unicode = 57;
},
{
color = 6;
glyphname = one.ss02;
lastChange = "2023-02-13 11:45:07 +0000";
layers = (
{
layerId = "6DBDBFCA-DF26-4695-B281-FA25C6EAD80F";
shapes = (
{
closed = 1;
nodes = (
(370,0,l),
(370,705,l),
(354,710,o),
(318,715,o),
(292,712,c),
(218,661,o),
(145,613,o),
(54,559,c),
(59,530,o),
(72,503,o),
(94,482,c),
(138,503,o),
(200,539,o),
(288,602,c),
(276,622,l),
(276,0,l)
);
},
{
closed = 1;
nodes = (
(497,0,l),
(502,14,o),
(504,28,o),
(504,43,cs),
(504,56,o),
(503,73,o),
(497,83,c),
(133,83,l),
(129,73,o),
(127,59,o),
(127,44,cs),
(127,30,o),
(129,14,o),
(133,0,c)
);
}
);
width = 526;
}
);
},
{
color = 3;
glyphname = seven.ss03;
lastChange = "2023-02-13 11:45:07 +0000";
layers = (
{
layerId = "6DBDBFCA-DF26-4695-B281-FA25C6EAD80F";
shapes = (
{
closed = 1;
nodes = (
(485,316,l),
(489,329,o),
(491,343,o),
(491,357,cs),
(491,370,o),
(490,386,o),
(485,396,c),
(141,396,l),
(136,386,o),
(135,372,o),
(135,359,cs),
(135,345,o),
(136,329,o),
(141,316,c)
);
},
{
ref = seven;
}
);
width = 524;
}
);
},
{
color = 6;
glyphname = period;
kernLeft = period;
kernRight = period;
lastChange = "2023-02-13 11:45:07 +0000";
layers = (
{
layerId = "6DBDBFCA-DF26-4695-B281-FA25C6EAD80F";
shapes = (
{
closed = 1;
nodes = (
(176,-14,o),
(208,17,o),
(208,54,cs),
(208,91,o),
(176,122,o),
(140,122,cs),
(103,122,o),
(72,91,o),
(72,54,cs),
(72,17,o),
(103,-14,o),
(140,-14,cs)
);
}
);
width = 290;
}
);
unicode = 46;
},
{
color = 6;
glyphname = comma;
kernLeft = period;
kernRight = period;
lastChange = "2023-02-13 11:47:16 +0000";
layers = (
{
layerId = "6DBDBFCA-DF26-4695-B281-FA25C6EAD80F";
shapes = (
{
closed = 1;
nodes = (
(160,-178,o),
(204,-95,o),
(204,-9,cs),
(204,39,o),
(192,76,o),
(178,104,c),
(147,104,o),
(108,91,o),
(89,71,c),
(105,39,o),
(113,11,o),
(113,-17,cs),
(113,-82,o),
(77,-131,o),
(32,-160,c),
(34,-183,o),
(57,-210,o),
(76,-220,c)
);
}
);
width = 300;
}
);
unicode = 44;
},
{
color = 3;
glyphname = exclam;
lastChange = "2023-02-13 11:45:07 +0000";
layers = (
{
layerId = "6DBDBFCA-DF26-4695-B281-FA25C6EAD80F";
shapes = (
{
closed = 1;
nodes = (
(187,236,o),
(202,237,o),
(218,240,c),
(218,705,l),
(202,708,o),
(187,710,o),
(172,710,cs),
(156,710,o),
(141,708,o),
(125,705,c),
(125,240,l),
(141,237,o),
(156,236,o),
(172,236,cs)
);
},
{
pos = (45,0);
ref = period;
}
);
width = 338;
}
);
unicode = 33;
},
{
color = 3;
glyphname = question;
lastChange = "2023-02-13 11:45:07 +0000";
layers = (
{
layerId = "6DBDBFCA-DF26-4695-B281-FA25C6EAD80F";
shapes = (
{
closed = 1;
nodes = (
(233,235,o),
(249,237,o),
(264,241,c),
(264,276,ls),
(264,316,o),
(273,328,o),
(302,345,cs),
(325,359,ls),
(386,395,o),
(430,436,o),
(430,530,cs),
(430,616,o),
(373,717,o),
(228,717,cs),
(101,717,o),
(34,637,o),
(23,572,c),
(50,556,o),
(78,548,o),
(109,547,c),
(121,594,o),
(168,629,o),
(227,629,cs),
(297,629,o),
(336,584,o),
(336,524,cs),
(336,486,o),
(321,457,o),
(275,430,cs),
(247,413,ls),
(205,388,o),
(171,352,o),
(171,281,cs),
(171,241,l),
(187,237,o),
(202,235,o),
(218,235,cs)
);
},
{
pos = (84,0);
ref = period;
}
);
width = 463;
}
);
unicode = 63;
},
{
color = 6;
glyphname = bullet;
lastChange = "2023-02-13 11:45:22 +0000";
layers = (
{
layerId = "6DBDBFCA-DF26-4695-B281-FA25C6EAD80F";
shapes = (
{
closed = 1;
nodes = (
(219,258,o),
(264,301,o),
(264,353,cs),
(264,406,o),
(219,450,o),
(167,450,cs),
(115,450,o),
(72,406,o),
(72,353,cs),
(72,301,o),
(115,258,o),
(167,258,cs)
);
}
);
width = 346;
}
);
metricLeft = period;
metricRight = period;
unicode = 8226;
},
{
color = 6;
glyphname = asterisk;
lastChange = "2023-02-13 11:45:07 +0000";
layers = (
{
layerId = "6DBDBFCA-DF26-4695-B281-FA25C6EAD80F";
shapes = (
{
closed = 1;
nodes = (
(237,498,l),
(385,416,l),
(404,432,o),
(416,450,o),
(416,476,c),
(306,537,l),
(416,598,l),
(414,621,o),
(405,642,o),
(383,656,c),
(237,575,l),
(90,656,l),
(68,643,o),
(59,621,o),
(56,598,c),
(167,537,l),
(56,476,l),
(58,450,o),
(70,431,o),
(88,416,c)
);
},
{
closed = 1;
nodes = (
(247,343,o),
(258,345,o),
(270,350,c),
(270,722,l),
(258,725,o),
(247,726,o),
(237,726,cs),
(226,726,o),
(214,725,o),
(203,722,c),
(203,350,l),
(214,345,o),
(226,343,o),
(236,343,cs)
);
}
);
width = 473;
}
);
unicode = 42;
},
{
color = 6;
glyphname = hyphen;
kernLeft = hyphen;
kernRight = hyphen;
lastChange = "2023-02-13 11:45:07 +0000";
layers = (
{
layerId = "6DBDBFCA-DF26-4695-B281-FA25C6EAD80F";
shapes = (
{
closed = 1;
nodes = (
(342,238,l),
(348,268,o),
(350,300,o),
(342,330,c),
(60,330,l),
(55,300,o),
(55,268,o),
(60,238,c)
);
}
);
width = 404;
}
);
unicode = 45;
},
{
color = 6;
glyphname = endash;
lastChange = "2023-02-13 11:45:07 +0000";
layers = (
{
layerId = "6DBDBFCA-DF26-4695-B281-FA25C6EAD80F";
shapes = (
{
closed = 1;
nodes = (
(352,248,l),
(355,262,o),
(356,275,o),
(356,289,cs),
(356,302,o),
(355,316,o),
(352,327,c),
(0,327,l),
(-3,315,o),
(-5,301,o),
(-5,288,cs),
(-5,274,o),
(-3,262,o),
(0,248,c)
);
}
);
width = 352;
}
);
metricLeft = emdash;
metricRight = emdash;
unicode = 8211;
},
{
color = 6;
glyphname = emdash;
lastChange = "2023-02-13 11:45:07 +0000";
layers = (
{
layerId = "6DBDBFCA-DF26-4695-B281-FA25C6EAD80F";
shapes = (
{
closed = 1;
nodes = (
(704,248,l),
(707,262,o),
(708,275,o),
(708,289,cs),
(708,302,o),
(707,316,o),
(704,327,c),
(0,327,l),
(-3,315,o),
(-5,301,o),
(-5,288,cs),
(-5,274,o),
(-3,262,o),
(0,248,c)
);
}
);
width = 704;
}
);
unicode = 8212;
},
{
color = 6;
glyphname = quoteright;
kernLeft = quote;
kernRight = quote;
lastChange = "2023-02-13 11:45:07 +0000";
layers = (
{
layerId = "6DBDBFCA-DF26-4695-B281-FA25C6EAD80F";
shapes = (
{
closed = 1;
nodes = (
(221,622,o),
(251,689,o),
(251,759,cs),
(251,817,o),
(230,876,o),
(189,914,c),
(157,906,o),
(121,879,o),
(107,855,c),
(131,831,o),
(163,791,o),
(163,744,cs),
(163,702,o),
(142,666,o),
(100,618,c),
(110,595,o),
(133,576,o),
(153,567,c)
);
}
);
width = 331;
}
);
unicode = 8217;
},
{
color = 6;
glyphname = guilsinglleft;
lastChange = "2023-02-13 11:45:07 +0000";
layers = (
{
layerId = "6DBDBFCA-DF26-4695-B281-FA25C6EAD80F";
shapes = (
{
closed = 1;
nodes = (
(229,26,o),
(253,45,o),
(263,73,c),
(103,272,l),
(105,192,l),
(258,391,l),
(241,418,o),
(218,438,o),
(188,447,c),
(23,232,l),
(195,17,l)
);
}
);
width = 308;
}
);
unicode = 8249;
},
{
color = 6;
glyphname = eye;
lastChange = "2023-02-13 11:45:07 +0000";
layers = (
{
layerId = "6DBDBFCA-DF26-4695-B281-FA25C6EAD80F";
shapes = (
{
closed = 1;
nodes = (
(325,184,o),
(195,282,o),
(138,380,c),
(138,339,l),
(195,451,o),
(326,564,o),
(500,564,cs),
(674,564,o),
(805,451,o),
(862,339,c),
(862,379,l),
(805,282,o),
(675,184,o),
(500,184,cs)
);
},
{
closed = 1;
nodes = (
(720,98,o),
(889,237,o),
(948,358,c),
(889,493,o),
(721,650,o),
(500,650,cs),
(279,650,o),
(111,493,o),
(52,358,c),
(111,237,o),
(280,98,o),
(500,98,cs)
);
},
{
closed = 1;
nodes = (
(424,403,o),
(398,429,o),
(398,460,cs),
(398,491,o),
(424,517,o),
(455,517,cs),
(486,517,o),
(512,491,o),
(512,460,cs),
(512,429,o),
(486,403,o),
(455,403,cs)
);
},
{
closed = 1;
nodes = (
(597,242,o),
(674,316,o),
(674,414,cs),
(674,512,o),
(597,586,o),
(502,586,cs),
(407,586,o),
(330,512,o),
(330,414,cs),
(330,316,o),
(407,242,o),
(502,242,cs)
);
}
);
width = 1000;
}
);
unicode = 128065;
},
{
color = 6;
glyphname = ear;
lastChange = "2023-02-13 11:45:07 +0000";
layers = (
{
layerId = "6DBDBFCA-DF26-4695-B281-FA25C6EAD80F";
shapes = (
{
closed = 1;
nodes = (
(284,67,o),
(359,-11,o),
(463,-11,cs),
(564,-11,o),
(628,71,o),
(636,154,cs),
(641,208,o),
(650,252,o),
(682,305,cs),
(706,346,o),
(752,415,o),
(752,507,cs),
(752,622,o),
(672,743,o),
(511,743,cs),
(358,743,o),
(254,617,o),
(249,475,c),
(335,473,l),
(338,580,o),
(403,659,o),
(508,659,cs),
(611,659,o),
(666,587,o),
(666,507,cs),
(666,441,o),
(634,392,o),
(608,349,cs),
(569,283,o),
(555,222,o),
(550,162,cs),
(545,110,o),
(518,75,o),
(463,75,cs),
(400,75,o),
(363,114,o),
(343,211,c),
(259,195,l)
);
},
{
closed = 1;
nodes = (
(465,187,o),
(532,237,o),
(532,307,cs),
(532,351,o),
(509,387,o),
(485,416,cs),
(466,439,o),
(452,457,o),
(452,484,cs),
(452,520,o),
(472,537,o),
(501,537,cs),
(531,537,o),
(545,516,o),
(545,489,cs),
(545,477,o),
(543,468,o),
(537,453,c),
(607,425,l),
(616,445,o),
(621,468,o),
(621,489,cs),
(621,551,o),
(581,613,o),
(503,613,cs),
(431,613,o),
(376,560,o),
(376,484,cs),
(376,429,o),
(407,391,o),
(427,368,cs),
(446,344,o),
(456,328,o),
(456,307,cs),
(456,278,o),
(431,263,o),
(394,263,c),
(403,189,l)
);
}
);
width = 1000;
}
);
unicode = 128066;
},
{
color = 6;
glyphname = pencil;
lastChange = "2023-02-13 11:45:07 +0000";
layers = (
{
layerId = "6DBDBFCA-DF26-4695-B281-FA25C6EAD80F";
shapes = (
{
closed = 1;
nodes = (
(839,554,l),
(714,679,l),
(539,732,l),
(196,389,l),
(130,-9,l),
(532,49,l),
(870,387,l)
);
},
{
closed = 1;
nodes = (
(745,512,o),
(742,529,o),
(709,563,cs),
(676,596,o),
(659,599,o),
(650,590,cs),
(641,581,o),
(644,564,o),
(677,531,cs),
(711,498,o),
(727,495,o),
(736,503,cs)
);
},
{
closed = 1;
nodes = (
(826,425,l),
(719,467,l),
(619,567,l),
(581,677,l),
(514,648,l),
(556,527,l),
(678,406,l),
(795,360,l)
);
},
{
closed = 1;
nodes = (
(682,474,l),
(393,186,l),
(443,136,l),
(731,425,l)
);
},
{
closed = 1;
nodes = (
(489,112,l),
(305,85,l),
(268,97,o),
(242,116,o),
(227,162,c),
(260,354,l),
(561,655,l),
(672,619,l),
(771,520,l),
(796,412,l)
);
},
{
closed = 1;
nodes = (
(568,587,l),
(280,299,l),
(329,249,l),
(618,538,l)
);
},
{
closed = 1;
nodes = (
(531,130,l),
(424,172,l),
(324,272,l),
(279,403,l),
(228,389,l),
(276,247,l),
(397,125,l),
(514,79,l)
);
}
);
width = 1000;
}
);
unicode = 9999;
},
{
color = 6;
glyphname = degree;
kernLeft = degree;
kernRight = degree;
lastChange = "2023-02-13 11:45:07 +0000";
layers = (
{
layerId = "6DBDBFCA-DF26-4695-B281-FA25C6EAD80F";
shapes = (
{
closed = 1;
nodes = (
(361,397,o),
(443,480,o),
(443,584,cs),
(443,688,o),
(362,771,o),
(256,771,cs),
(150,771,o),
(68,688,o),
(68,584,cs),
(68,480,o),
(151,397,o),
(256,397,cs)
);
},
{
closed = 1;
nodes = (
(196,476,o),
(151,524,o),
(151,584,cs),
(151,644,o),
(196,692,o),
(256,692,cs),
(316,692,o),
(361,644,o),
(361,584,cs),
(361,524,o),
(316,476,o),
(256,476,cs)
);
}
);
width = 511;
}
);
unicode = 176;
},
{
color = 3;
glyphname = plus;
lastChange = "2023-02-13 11:45:07 +0000";
layers = (
{
layerId = "6DBDBFCA-DF26-4695-B281-FA25C6EAD80F";
shapes = (
{
closed = 1;
nodes = (
(318,124,o),
(358,124,o),
(380,133,c),
(380,605,l),
(358,614,o),
(318,614,o),
(296,605,c),
(296,133,l)
);
},
{
ref = minus;
}
);
width = 676;
}
);
metricWidth = "=676";
unicode = 43;
},
{
color = 6;
glyphname = minus;
lastChange = "2023-02-13 11:45:07 +0000";
layers = (
{
layerId = "6DBDBFCA-DF26-4695-B281-FA25C6EAD80F";
shapes = (
{
closed = 1;
nodes = (
(574,329,l),
(583,350,o),
(583,388,o),
(574,409,c),
(102,409,l),
(93,388,o),
(93,350,o),
(102,329,c)
);
}
);
width = 676;
}
);
metricWidth = "=676";
unicode = 8722;
},
{
color = 6;
glyphname = dotaccentcomb;
lastChange = "2023-02-13 11:45:07 +0000";
layers = (
{
anchors = (
{
name = _top;
pos = (158,468);
}
);
layerId = "6DBDBFCA-DF26-4695-B281-FA25C6EAD80F";
shapes = (
{
closed = 1;
nodes = (
(197,615,o),
(227,644,o),
(227,682,cs),
(227,720,o),
(197,749,o),
(159,749,cs),
(121,749,o),
(92,720,o),
(92,682,cs),
(92,645,o),
(122,615,o),
(159,615,cs)
);
}
);
width = 315;
}
);
unicode = 775;
},
{
color = 6;
glyphname = gravecomb;
lastChange = "2023-02-13 11:45:07 +0000";
layers = (
{
anchors = (
{
name = _top;
pos = (264,468);
}
);
layerId = "6DBDBFCA-DF26-4695-B281-FA25C6EAD80F";
shapes = (
{
closed = 1;
nodes = (
(327,580,o),
(346,607,o),
(353,634,c),
(292,677,o),
(213,752,o),
(184,795,c),
(153,787,o),
(129,766,o),
(117,740,c),
(146,696,o),
(226,612,o),
(302,564,c)
);
}
);
width = 457;
}
);
unicode = 768;
},
{
color = 6;
glyphname = acutecomb;
lastChange = "2023-02-13 11:45:07 +0000";
layers = (
{
anchors = (
{
name = _top;
pos = (186,468);
}
);
layerId = "6DBDBFCA-DF26-4695-B281-FA25C6EAD80F";
shapes = (
{
closed = 1;
nodes = (
(224,612,o),
(304,696,o),
(333,740,c),
(321,766,o),
(297,787,o),
(266,795,c),
(237,752,o),
(158,677,o),
(97,634,c),
(104,607,o),
(123,580,o),
(148,564,c)
);
}
);
width = 391;
}
);
unicode = 769;
},
{
color = 6;
glyphname = circumflexcomb;
lastChange = "2023-02-13 11:45:07 +0000";
layers = (
{
anchors = (
{
name = _top;
pos = (273,468);
}
);
layerId = "6DBDBFCA-DF26-4695-B281-FA25C6EAD80F";
shapes = (
{
closed = 1;
nodes = (
(193,587,o),
(262,667,o),
(298,722,c),
(253,722,l),
(289,667,o),
(358,586,o),
(392,560,c),
(412,567,o),
(437,594,o),
(445,619,c),
(399,664,o),
(344,732,o),
(304,788,c),
(283,791,o),
(268,791,o),
(247,788,c),
(207,732,o),
(152,664,o),
(106,619,c),
(114,594,o),
(139,567,o),
(159,560,c)
);
}
);
width = 544;
}
);
unicode = 770;
},
{
color = 6;
glyphname = tildecomb;
lastChange = "2023-02-13 11:45:07 +0000";
layers = (
{
anchors = (
{
name = _top;
pos = (338,468);
}
);
layerId = "6DBDBFCA-DF26-4695-B281-FA25C6EAD80F";
shapes = (
{
closed = 1;
nodes = (
(241,666,o),
(225,647,o),
(222,615,c),
(194,615,o),
(170,620,o),
(151,629,c),
(160,700,o),
(198,747,o),
(257,747,cs),
(286,747,o),
(303,739,o),
(345,711,cs),
(378,689,o),
(389,684,o),
(405,684,cs),
(430,684,o),
(446,703,o),
(449,735,c),
(477,736,o),
(499,732,o),
(520,722,c),
(511,652,o),
(472,603,o),
(418,603,cs),
(390,603,o),
(373,609,o),
(335,633,cs),
(291,661,o),
(281,666,o),
(264,666,cs)
);
}
);
width = 677;
}
);
unicode = 771;
},
{
color = 6;
glyphname = cedillacomb;
lastChange = "2023-02-13 11:45:07 +0000";
layers = (
{
anchors = (
{
name = _bottom;
pos = (207,0);
}
);
layerId = "6DBDBFCA-DF26-4695-B281-FA25C6EAD80F";
shapes = (
{
closed = 1;
nodes = (
(306,-277,o),
(359,-232,o),
(359,-170,cs),
(359,-113,o),
(311,-74,o),
(229,-67,c),
(244,-88,l),
(249,7,l),
(168,7,l),
(160,-125,l),
(236,-130,o),
(276,-144,o),
(276,-167,cs),
(276,-191,o),
(247,-203,o),
(197,-203,cs),
(177,-203,o),
(152,-200,o),
(138,-196,c),
(132,-221,o),
(132,-246,o),
(138,-271,c),
(154,-275,o),
(179,-277,o),
(200,-277,cs)
);
}
);
width = 422;
}
);
unicode = 807;
},
{
color = 6;
glyphname = dieresiscomb.case;
lastChange = "2023-02-13 11:45:07 +0000";
layers = (
{
anchors = (
{
name = _top;
pos = (252,705);
}
);
layerId = "6DBDBFCA-DF26-4695-B281-FA25C6EAD80F";
shapes = (
{
closed = 1;
nodes = (
(385,799,o),
(414,826,o),
(414,861,cs),
(414,896,o),
(385,924,o),
(351,924,cs),
(317,924,o),
(289,896,o),
(289,861,cs),
(289,827,o),
(317,799,o),
(351,799,cs)
);
},
{
closed = 1;
nodes = (
(181,799,o),
(210,826,o),
(210,861,cs),
(210,896,o),
(181,924,o),
(147,924,cs),
(113,924,o),
(85,896,o),
(85,861,cs),
(85,827,o),
(113,799,o),
(147,799,cs)
);
}
);
width = 500;
}
);
},
{
color = 6;
glyphname = gravecomb.case;
lastChange = "2023-02-13 11:45:07 +0000";
layers = (
{
anchors = (
{
name = _top;
pos = (271,705);
}
);
layerId = "6DBDBFCA-DF26-4695-B281-FA25C6EAD80F";
shapes = (
{
closed = 1;
nodes = (
(369,807,o),
(379,839,o),
(378,867,c),
(307,888,o),
(208,937,o),
(167,968,c),
(141,951,o),
(123,924,o),
(121,896,c),
(160,862,o),
(263,806,o),
(350,785,c)
);
}
);
width = 500;
}
);
},
{
color = 6;
glyphname = acutecomb.case;
lastChange = "2023-02-13 11:45:07 +0000";
layers = (
{
anchors = (
{
name = _top;
pos = (228,705);
}
);
layerId = "6DBDBFCA-DF26-4695-B281-FA25C6EAD80F";
shapes = (
{
closed = 1;
nodes = (
(236,806,o),
(339,862,o),
(378,896,c),
(376,924,o),
(358,951,o),
(332,968,c),
(291,937,o),
(192,888,o),
(121,867,c),
(120,839,o),
(130,807,o),
(149,785,c)
);
}
);
width = 500;
}
);
},
{
color = 6;
glyphname = circumflexcomb.case;
lastChange = "2023-02-13 11:45:07 +0000";
layers = (
{
anchors = (
{
name = _top;
pos = (264,705);
}
);
layerId = "6DBDBFCA-DF26-4695-B281-FA25C6EAD80F";
shapes = (
{
closed = 1;
nodes = (
(262,969,o),
(239,969,o),
(215,963,c),
(172,926,o),
(147,896,o),
(72,851,c),
(76,823,o),
(89,797,o),
(116,785,c),
(166,804,o),
(228,844,o),
(280,906,c),
(222,906,l),
(273,850,o),
(335,804,o),
(385,785,c),
(413,797,o),
(424,823,o),
(428,851,c),
(354,896,o),
(329,926,o),
(286,963,c)
);
}
);
width = 500;
}
);
},
{
color = 6;
export = 0;
glyphname = _part.a;
lastChange = "2023-02-13 11:45:07 +0000";
layers = (
{
anchors = (
{
name = top;
pos = (304,468);
}
);
layerId = "6DBDBFCA-DF26-4695-B281-FA25C6EAD80F";
shapes = (
{
closed = 1;
nodes = (
(399,-14,o),
(487,93,o),
(485,246,c),
(504,246,l),
(504,473,l),
(489,478,o),
(475,480,o),
(459,480,cs),
(443,480,o),
(426,477,o),
(414,473,c),
(414,239,ls),
(414,139,o),
(358,71,o),
(275,71,cs),
(200,71,o),
(154,128,o),
(154,222,cs),
(154,324,o),
(215,397,o),
(300,397,cs),
(353,397,o),
(409,360,o),
(429,311,c),
(429,414,l),
(402,455,o),
(345,482,o),
(289,482,cs),
(158,482,o),
(62,372,o),
(62,222,cs),
(62,82,o),
(147,-14,o),
(271,-14,cs)
);
}
);
width = 670;
}
);
},
{
color = 3;
export = 0;
glyphname = _part.ae;
lastChange = "2023-02-13 11:45:07 +0000";
layers = (
{
anchors = (
{
name = "#fina";
pos = (642,70);
}
);
layerId = "6DBDBFCA-DF26-4695-B281-FA25C6EAD80F";
shapes = (
{
closed = 1;
nodes = (
(657,-14,o),
(671,2,o),
(671,28,cs),
(671,52,o),
(659,70,o),
(642,70,cs),
(546,70,o),
(476,142,o),
(476,242,cs),
(476,338,o),
(522,400,o),
(593,400,cs),
(629,400,o),
(658,375,o),
(658,343,cs),
(658,293,o),
(600,259,o),
(514,259,cs),
(495,259,o),
(475,261,o),
(450,266,c),
(446,186,l),
(484,181,o),
(498,180,o),
(514,180,cs),
(653,180,o),
(744,247,o),
(744,348,cs),
(744,425,o),
(679,482,o),
(593,482,cs),
(479,482,o),
(400,384,o),
(400,241,cs),
(400,86,o),
(492,-14,o),
(635,-14,cs)
);
},
{
alignment = -1;
pos = (-27,0);
ref = _part.a;
}
);
width = 744;
}
);
metricLeft = a.init;
metricRight = e.medi.cv02;
},
{
color = 6;
export = 0;
glyphname = _part.b;
lastChange = "2023-02-13 11:45:07 +0000";
layers = (
{
anchors = (
{
name = "#fina";
pos = (527,386);
}
);
layerId = "6DBDBFCA-DF26-4695-B281-FA25C6EAD80F";
shapes = (
{
closed = 1;
nodes = (
(120,340,o),
(134,216,o),
(167,132,cs),
(205,36,o),
(267,-10,o),
(362,-10,cs),
(499,-10,o),
(590,106,o),
(590,283,cs),
(590,347,o),
(568,460,o),
(507,460,cs),
(474,460,o),
(428,422,o),
(415,381,c),
(428,361,o),
(456,337,o),
(497,311,c),
(499,297,o),
(500,283,o),
(500,269,cs),
(500,156,o),
(442,74,o),
(362,74,cs),
(304,74,o),
(264,112,o),
(237,188,cs),
(213,259,o),
(203,364,o),
(203,542,cs),
(203,669,o),
(208,738,o),
(220,780,cs),
(231,816,o),
(249,833,o),
(275,833,cs),
(319,833,o),
(341,780,o),
(341,674,c),
(370,667,o),
(396,666,o),
(425,673,c),
(425,825,o),
(371,915,o),
(279,915,cs),
(214,915,o),
(170,881,o),
(146,814,cs),
(127,764,o),
(120,691,o),
(120,542,cs)
);
}
);
width = 652;
}
);
},
{
color = 6;
export = 0;
glyphname = _part.c;
lastChange = "2023-02-13 11:45:07 +0000";
layers = (
{
anchors = (
{
name = bottom;
pos = (314,0);
}
);
layerId = "6DBDBFCA-DF26-4695-B281-FA25C6EAD80F";
shapes = (
{
closed = 1;
nodes = (
(366,-14,o),
(377,6,o),
(377,27,cs),
(377,48,o),
(367,70,o),
(348,70,cs),
(224,70,o),
(188,162,o),
(188,237,cs),
(188,347,o),
(250,397,o),
(316,397,cs),
(352,397,o),
(387,380,o),
(406,352,c),
(427,361,o),
(456,390,o),
(463,410,c),
(439,449,o),
(381,482,o),
(315,482,cs),
(196,482,o),
(96,383,o),
(96,237,cs),
(96,112,o),
(172,-14,o),
(342,-14,cs)
);
}
);
width = 450;
}
);
},
{
color = 3;
export = 0;
glyphname = _part.d;
lastChange = "2023-02-13 11:45:07 +0000";
layers = (
{
layerId = "6DBDBFCA-DF26-4695-B281-FA25C6EAD80F";
shapes = (
{
closed = 1;
nodes = (
(504,379,l),
(504,865,l),
(488,870,o),
(474,872,o),
(459,872,cs),
(442,872,o),
(425,869,o),
(414,865,c),
(414,379,l)
);
},
{
ref = _part.a;
}
);
width = 670;
}
);
},
{
color = 6;
export = 0;
glyphname = _part.e;
lastChange = "2023-02-13 11:45:07 +0000";
layers = (
{
anchors = (
{
name = "#fina";
pos = (337,70);
},
{
name = top;
pos = (245,468);
}
);
layerId = "6DBDBFCA-DF26-4695-B281-FA25C6EAD80F";
shapes = (
{
closed = 1;
nodes = (
(353,-14,o),
(366,2,o),
(366,27,cs),
(366,52,o),
(354,70,o),
(337,70,cs),
(281,70,o),
(240,90,o),
(224,127,c),
(215,136,l),
(189,161,o),
(173,217,o),
(173,279,cs),
(173,348,o),
(211,400,o),
(262,400,cs),
(303,400,o),
(328,371,o),
(328,323,c),
(414,323,l),
(414,416,o),
(352,482,o),
(265,482,cs),
(161,482,o),
(87,394,o),
(87,271,cs),
(87,202,o),
(105,140,o),
(139,92,c),
(149,79,l),
(179,22,o),
(250,-14,o),
(332,-14,cs)
);
}
);
width = 496;
}
);
},
{
color = 6;
export = 0;
glyphname = _part.f;
lastChange = "2023-02-13 11:45:07 +0000";
layers = (
{
anchors = (
{
name = "#fina";
pos = (407,71);
}
);
layerId = "6DBDBFCA-DF26-4695-B281-FA25C6EAD80F";
shapes = (
{
closed = 1;
nodes = (
(363,-519,o),
(420,-427,o),
(420,-247,cs),
(420,-21,o),
(342,151,o),
(221,188,c),
(189,176,o),
(168,150,o),
(166,109,c),
(193,50,o),
(315,-14,o),
(400,-14,cs),
(422,-14,o),
(436,2,o),
(436,28,cs),
(436,53,o),
(424,71,o),
(407,71,cs),
(358,71,o),
(313,101,o),
(260,169,c),
(241,88,l),
(302,21,o),
(333,-86,o),
(333,-229,cs),
(333,-365,o),
(306,-438,o),
(257,-438,cs),
(202,-438,o),
(182,-386,o),
(182,-237,cs),
(182,705,ls),
(182,791,o),
(205,833,o),
(248,833,cs),
(287,833,o),
(308,785,o),
(308,694,c),
(335,687,o),
(360,686,o),
(392,693,c),
(392,822,o),
(343,915,o),
(245,915,cs),
(153,915,o),
(99,836,o),
(99,705,cs),
(99,-268,ls),
(99,-430,o),
(153,-519,o),
(251,-519,cs)
);
}
);
width = 407;
}
);
},
{
color = 3;
export = 0;
glyphname = _part.g;
lastChange = "2023-02-13 11:45:07 +0000";
layers = (
{
layerId = "6DBDBFCA-DF26-4695-B281-FA25C6EAD80F";
shapes = (
{
closed = 1;
nodes = (
(451,46,o),
(477,51,c),
(477,291,l),
(389,291,l),
(389,51,l),
(415,46,o)
);
},
{
pos = (-53,0);
ref = _part.boucle.bas;
},
{
pos = (-27,0);
ref = _part.a;
}
);
width = 605;
}
);
metricLeft = o.init;
},
{
color = 3;
export = 0;
glyphname = _part.h;
lastChange = "2023-02-13 11:45:07 +0000";
layers = (
{
layerId = "6DBDBFCA-DF26-4695-B281-FA25C6EAD80F";
shapes = (
{
closed = 1;
nodes = (
(264,297,o),
(330,374,o),
(403,374,cs),
(450,374,o),
(489,343,o),
(489,254,cs),
(489,217,l),
(580,217,l),
(580,265,ls),
(580,360,o),
(536,458,o),
(418,458,cs),
(334,458,o),
(237,401,o),
(197,245,c),
(262,171,l)
);
},
{
ref = _part.hk;
}
);
width = 643;
}
);
},
{
color = 6;
export = 0;
glyphname = _part.hk;
lastChange = "2023-02-13 11:45:07 +0000";
layers = (
{
layerId = "6DBDBFCA-DF26-4695-B281-FA25C6EAD80F";
shapes = (
{
closed = 1;
nodes = (
(262,316,l),
(257,335,l),
(257,705,ls),
(257,791,o),
(279,833,o),
(322,833,cs),
(361,833,o),
(383,796,o),
(383,734,c),
(410,727,o),
(435,726,o),
(467,733,c),
(467,841,o),
(410,915,o),
(326,915,cs),
(232,915,o),
(174,836,o),
(174,705,cs),
(174,0,l),
(190,-5,o),
(203,-7,o),
(218,-7,cs),
(234,-7,o),
(250,-4,o),
(262,0,c)
);
}
);
width = 643;
}
);
},
{
color = 6;
export = 0;
glyphname = _part.i;
lastChange = "2023-02-13 11:45:07 +0000";
layers = (
{
layerId = "6DBDBFCA-DF26-4695-B281-FA25C6EAD80F";
shapes = (
{
closed = 1;
nodes = (
(170,262,o),
(200,261,o),
(230,268,c),
(230,468,l),
(214,473,o),
(200,475,o),
(185,475,cs),
(168,475,o),
(151,472,o),
(140,468,c),
(140,268,l)
);
}
);
width = 293;
}
);
},
{
color = 3;
export = 0;
glyphname = _part.k;
lastChange = "2023-02-13 11:45:07 +0000";
layers = (
{
layerId = "6DBDBFCA-DF26-4695-B281-FA25C6EAD80F";
shapes = (
{
closed = 1;
nodes = (
(262,292,o),
(342,408,o),
(429,408,cs),
(469,408,o),
(500,377,o),
(500,332,cs),
(500,263,o),
(421,215,o),
(309,215,cs),
(294,215,o),
(278,216,o),
(265,218,c),
(332,157,l),
(483,157,o),
(585,228,o),
(585,333,cs),
(585,421,o),
(525,482,o),
(440,482,cs),
(324,482,o),
(230,382,o),
(194,219,c),
(262,130,l)
);
},
{
pos = (2,0);
ref = _part.hk;
}
);
width = 601;
}
);
},
{
color = 6;
export = 0;
glyphname = _part.l;
lastChange = "2023-02-13 11:45:07 +0000";
layers = (
{
layerId = "6DBDBFCA-DF26-4695-B281-FA25C6EAD80F";
shapes = (
{
closed = 1;
nodes = (
(116,588,o),
(145,590,o),
(174,598,c),
(174,760,o),
(196,833,o),
(250,833,cs),
(290,833,o),
(314,774,o),
(314,660,c),
(343,653,o),
(371,651,o),
(400,656,c),
(400,819,o),
(347,915,o),
(250,915,cs),
(141,915,o),
(87,812,o),
(87,592,c)
);
}
);
width = 415;
}
);
},
{
color = 6;
export = 0;
glyphname = _part.m;
lastChange = "2023-02-13 11:45:07 +0000";
layers = (
{
layerId = "6DBDBFCA-DF26-4695-B281-FA25C6EAD80F";
shapes = (
{
closed = 1;
nodes = (
(317,-7,o),
(334,-4,o),
(347,0,c),
(347,138,ls),
(347,297,o),
(393,397,o),
(467,397,cs),
(518,397,o),
(548,347,o),
(548,262,cs),
(548,0,l),
(563,-5,o),
(577,-7,o),
(593,-7,cs),
(608,-7,o),
(625,-4,o),
(638,0,c),
(638,170,ls),
(638,312,o),
(680,397,o),
(750,397,cs),
(798,397,o),
(823,358,o),
(823,285,cs),
(823,262,l),
(852,256,o),
(889,256,o),
(913,262,c),
(913,312,ls),
(913,420,o),
(860,482,o),
(767,482,cs),
(689,482,o),
(626,433,o),
(600,353,c),
(622,343,l),
(604,435,o),
(555,482,o),
(479,482,cs),
(404,482,o),
(346,435,o),
(320,352,c),
(344,352,l),
(336,432,o),
(288,482,o),
(220,482,c),
(207,464,o),
(203,427,o),
(212,397,c),
(241,397,o),
(257,368,o),
(257,317,cs),
(257,0,l),
(272,-5,o),
(286,-7,o),
(302,-7,cs)
);
}
);
width = 1103;
}
);
},
{
color = 6;
export = 0;
glyphname = _part.n;
lastChange = "2023-02-13 11:45:07 +0000";
layers = (
{
anchors = (
{
name = top;
pos = (416,468);
}
);
layerId = "6DBDBFCA-DF26-4695-B281-FA25C6EAD80F";
partSelection = {
contrast = 2;
};
shapes = (
{
closed = 1;
nodes = (
(317,-7,o),
(334,-4,o),
(347,0,c),
(347,123,ls),
(347,286,o),
(406,397,o),
(493,397,cs),
(548,397,o),
(577,359,o),
(577,289,c),
(607,276,o),
(637,276,o),
(667,289,c),
(667,412,o),
(609,482,o),
(506,482,cs),
(420,482,o),
(350,431,o),
(317,343,c),
(344,343,l),
(341,427,o),
(292,482,o),
(220,482,c),
(207,457,o),
(204,429,o),
(212,397,c),
(241,397,o),
(257,368,o),
(257,317,cs),
(257,0,l),
(272,-5,o),
(286,-7,o),
(302,-7,cs)
);
}
);
width = 731;
}
);
partsSettings = (
{
bottomName = Low;
bottomValue = -100;
name = contrast;
topName = High;
topValue = 0;
}
);
},
{
color = 6;
export = 0;
glyphname = _part.o;
lastChange = "2023-02-13 11:45:07 +0000";
layers = (
{
anchors = (
{
name = top;
pos = (270,468);
}
);
layerId = "6DBDBFCA-DF26-4695-B281-FA25C6EAD80F";
shapes = (
{
closed = 1;
nodes = (
(416,-14,o),
(500,107,o),
(500,235,cs),
(500,362,o),
(415,482,o),
(268,482,cs),
(120,482,o),
(35,361,o),
(35,235,cs),
(35,107,o),
(119,-14,o),
(268,-14,cs)
);
},
{
closed = 1;
nodes = (
(178,71,o),
(128,142,o),
(128,235,cs),
(128,326,o),
(180,397,o),
(268,397,cs),
(356,397,o),
(407,326,o),
(407,235,cs),
(407,143,o),
(357,71,o),
(268,71,cs)
);
}
);
width = 535;
}
);
},
{
color = 6;
export = 0;
glyphname = _part.oe;
lastChange = "2023-02-13 11:45:07 +0000";
layers = (
{
anchors = (
{
name = "#fina";
pos = (701,70);
}
);
layerId = "6DBDBFCA-DF26-4695-B281-FA25C6EAD80F";
shapes = (
{
closed = 1;
nodes = (
(441,-14,o),
(535,92,o),
(535,235,cs),
(535,377,o),
(441,482,o),
(315,482,cs),
(185,482,o),
(88,377,o),
(88,235,cs),
(88,91,o),
(183,-14,o),
(314,-14,cs)
);
},
{
closed = 1;
nodes = (
(234,71,o),
(180,136,o),
(180,235,cs),
(180,332,o),
(235,397,o),
(315,397,cs),
(395,397,o),
(449,331,o),
(449,235,cs),
(449,137,o),
(394,71,o),
(314,71,cs)
);
},
{
closed = 1;
nodes = (
(605,70,o),
(535,142,o),
(535,242,cs),
(535,338,o),
(581,400,o),
(652,400,cs),
(688,400,o),
(717,375,o),
(717,343,cs),
(717,293,o),
(659,259,o),
(573,259,cs),
(554,259,o),
(534,261,o),
(509,266,c),
(505,186,l),
(543,181,o),
(557,180,o),
(573,180,cs),
(712,180,o),
(803,247,o),
(803,348,cs),
(803,425,o),
(738,482,o),
(652,482,cs),
(538,482,o),
(459,384,o),
(459,241,cs),
(459,86,o),
(552,-14,o),
(696,-14,cs),
(718,-14,o),
(730,2,o),
(730,28,cs),
(730,52,o),
(718,70,o),
(701,70,cs)
);
},
{
closed = 1;
nodes = (
(475,284,o),
(436,393,o),
(303,415,c),
(303,336,o),
(380,232,o),
(455,201,c)
);
}
);
width = 803;
}
);
metricRight = e.medi.cv02;
},
{
color = 6;
export = 0;
glyphname = _part.p;
lastChange = "2023-02-13 11:45:07 +0000";
layers = (
{
layerId = "6DBDBFCA-DF26-4695-B281-FA25C6EAD80F";
shapes = (
{
closed = 1;
nodes = (
(302,-390,o),
(319,-387,o),
(332,-383,c),
(332,185,ls),
(332,305,o),
(387,397,o),
(460,397,cs),
(508,397,o),
(535,353,o),
(535,276,c),
(566,267,o),
(596,267,o),
(625,276,c),
(625,291,ls),
(625,407,o),
(564,482,o),
(470,482,cs),
(379,482,o),
(312,417,o),
(281,298,c),
(326,320,l),
(242,320,l),
(242,-383,l),
(257,-388,o),
(271,-390,o),
(287,-390,cs)
);
}
);
width = 716;
}
);
},
{
color = 3;
export = 0;
glyphname = _part.q;
lastChange = "2023-02-13 11:45:07 +0000";
layers = (
{
layerId = "6DBDBFCA-DF26-4695-B281-FA25C6EAD80F";
shapes = (
{
closed = 1;
nodes = (
(496,-390,o),
(513,-387,o),
(526,-383,c),
(526,282,l),
(436,282,l),
(436,-383,l),
(451,-388,o),
(465,-390,o),
(481,-390,cs)
);
},
{
pos = (22,0);
ref = _part.a;
}
);
width = 662;
}
);
},
{
color = 6;
export = 0;
glyphname = _part.r;
lastChange = "2023-02-13 11:45:07 +0000";
layers = (
{
layerId = "6DBDBFCA-DF26-4695-B281-FA25C6EAD80F";
shapes = (
{
closed = 1;
nodes = (
(437,249,o),
(466,249,o),
(500,256,c),
(500,328,ls),
(500,419,o),
(456,476,o),
(385,476,cs),
(366,476,o),
(343,473,o),
(301,464,cs),
(263,455,o),
(237,451,o),
(216,451,c),
(216,368,l),
(237,368,o),
(259,371,o),
(306,381,cs),
(343,389,o),
(355,391,o),
(368,391,cs),
(399,391,o),
(410,370,o),
(410,311,cs),
(410,256,l)
);
}
);
width = 563;
}
);
},
{
color = 6;
export = 0;
glyphname = _part.s;
lastChange = "2023-02-13 11:45:07 +0000";
layers = (
{
anchors = (
{
name = "#fina";
pos = (422,-5);
}
);
layerId = "6DBDBFCA-DF26-4695-B281-FA25C6EAD80F";
shapes = (
{
closed = 1;
nodes = (
(485,-14,o),
(559,53,o),
(559,149,cs),
(559,204,o),
(533,250,o),
(478,293,cs),
(400,354,ls),
(355,390,o),
(339,419,o),
(339,468,c),
(405,509,l),
(393,535,o),
(347,555,o),
(312,548,c),
(289,539,o),
(268,495,o),
(268,456,cs),
(268,393,o),
(292,332,o),
(329,304,cs),
(415,239,ls),
(451,212,o),
(471,180,o),
(471,149,cs),
(471,103,o),
(433,71,o),
(380,71,cs),
(344,71,o),
(312,82,o),
(274,107,c),
(248,91,o),
(234,63,o),
(235,30,c),
(283,0,o),
(328,-14,o),
(380,-14,cs)
);
}
);
width = 553;
}
);
},
{
color = 6;
export = 0;
glyphname = _part.t;
lastChange = "2023-02-13 12:07:32 +0000";
layers = (
{
layerId = "6DBDBFCA-DF26-4695-B281-FA25C6EAD80F";
shapes = (
{
closed = 1;
nodes = (
(280,217,l),
(280,722,l),
(264,727,o),
(250,729,o),
(235,729,cs),
(217,729,o),
(200,726,o),
(189,722,c),
(189,217,l)
);
},
{
closed = 1;
nodes = (
(428,468,l),
(437,489,o),
(437,527,o),
(428,548,c),
(99,548,l),
(90,527,o),
(90,489,o),
(99,468,c)
);
}
);
width = 376;
}
);
},
{
color = 6;
export = 0;
glyphname = _part.u;
lastChange = "2023-02-13 11:45:07 +0000";
layers = (
{
anchors = (
{
name = top;
pos = (359,468);
}
);
layerId = "6DBDBFCA-DF26-4695-B281-FA25C6EAD80F";
shapes = (
{
closed = 1;
nodes = (
(486,-14,o),
(561,89,o),
(561,263,c),
(576,281,l),
(576,468,l),
(560,473,o),
(546,475,o),
(531,475,cs),
(513,475,o),
(497,472,o),
(486,468,c),
(486,281,ls),
(486,145,o),
(438,74,o),
(345,74,cs),
(265,74,o),
(230,124,o),
(230,239,cs),
(230,321,l),
(200,329,o),
(171,329,o),
(140,321,c),
(140,238,ls),
(140,74,o),
(209,-14,o),
(338,-14,cs)
);
}
);
width = 639;
}
);
},
{
color = 6;
export = 0;
glyphname = _part.v;
lastChange = "2023-02-13 11:45:07 +0000";
layers = (
{
anchors = (
{
name = "#fina";
pos = (662,395);
}
);
layerId = "6DBDBFCA-DF26-4695-B281-FA25C6EAD80F";
shapes = (
{
closed = 1;
nodes = (
(603,-14,o),
(712,126,o),
(712,312,cs),
(712,411,o),
(682,482,o),
(639,482,cs),
(600,482,o),
(553,431,o),
(549,367,c),
(573,340,o),
(610,320,o),
(662,306,c),
(598,420,l),
(611,397,o),
(621,347,o),
(621,304,cs),
(621,181,o),
(549,71,o),
(468,71,cs),
(425,71,o),
(405,106,o),
(405,179,cs),
(405,330,ls),
(405,424,o),
(349,482,o),
(278,482,c),
(263,456,o),
(263,427,o),
(270,397,c),
(295,397,o),
(315,374,o),
(315,317,cs),
(315,160,ls),
(315,53,o),
(370,-14,o),
(458,-14,cs)
);
}
);
width = 803;
}
);
},
{
color = 6;
export = 0;
glyphname = _part.w;
lastChange = "2023-02-13 11:45:07 +0000";
layers = (
{
anchors = (
{
name = "#fina";
pos = (887,395);
}
);
layerId = "6DBDBFCA-DF26-4695-B281-FA25C6EAD80F";
shapes = (
{
closed = 1;
nodes = (
(556,-14,o),
(623,41,o),
(643,125,c),
(599,126,l),
(615,39,o),
(671,-14,o),
(745,-14,cs),
(869,-14,o),
(937,118,o),
(937,312,cs),
(937,412,o),
(907,482,o),
(865,482,cs),
(825,482,o),
(782,427,o),
(775,367,c),
(797,340,o),
(831,322,o),
(887,306,c),
(837,387,l),
(844,354,o),
(847,332,o),
(847,308,cs),
(847,168,o),
(814,71,o),
(748,71,cs),
(692,71,o),
(665,132,o),
(665,270,cs),
(665,330,l),
(651,335,o),
(637,337,o),
(621,337,cs),
(605,337,o),
(589,334,o),
(577,330,c),
(577,270,ls),
(577,148,o),
(547,71,o),
(480,71,cs),
(429,71,o),
(405,116,o),
(405,212,cs),
(405,334,ls),
(405,416,o),
(355,482,o),
(278,482,c),
(263,455,o),
(263,425,o),
(270,397,c),
(302,397,o),
(315,361,o),
(315,317,cs),
(315,201,ls),
(315,65,o),
(373,-14,o),
(473,-14,cs)
);
}
);
width = 1016;
}
);
},
{
color = 6;
export = 0;
glyphname = _part.x;
lastChange = "2023-02-13 11:45:07 +0000";
layers = (
{
anchors = (
{
name = "#fina";
pos = (694,70);
}
);
layerId = "6DBDBFCA-DF26-4695-B281-FA25C6EAD80F";
shapes = (
{
closed = 1;
nodes = (
(450,-14,o),
(551,102,o),
(551,242,cs),
(551,377,o),
(465,482,o),
(355,482,c),
(346,455,o),
(345,427,o),
(352,397,c),
(415,397,o),
(465,328,o),
(465,242,cs),
(465,202,o),
(454,163,o),
(434,133,cs),
(408,93,o),
(368,71,o),
(325,71,cs),
(295,71,o),
(268,81,o),
(237,104,c),
(214,90,o),
(198,60,o),
(197,30,c),
(224,5,o),
(280,-14,o),
(328,-14,cs)
);
},
{
closed = 1;
nodes = (
(709,-14,o),
(723,2,o),
(723,27,cs),
(723,52,o),
(711,70,o),
(694,70,cs),
(613,70,o),
(555,144,o),
(555,247,cs),
(555,336,o),
(603,397,o),
(673,397,cs),
(696,397,o),
(720,391,o),
(751,379,c),
(765,393,o),
(779,429,o),
(779,453,c),
(753,470,o),
(709,482,o),
(668,482,cs),
(553,482,o),
(469,381,o),
(469,242,cs),
(469,81,o),
(550,-14,o),
(687,-14,cs)
);
}
);
width = 748;
}
);
},
{
color = 3;
export = 0;
glyphname = _part.y;
lastChange = "2023-02-13 11:45:07 +0000";
layers = (
{
layerId = "6DBDBFCA-DF26-4695-B281-FA25C6EAD80F";
shapes = (
{
closed = 1;
nodes = (
(477,-14,o),
(553,98,o),
(553,281,c),
(575,281,l),
(575,468,l),
(560,473,o),
(546,475,o),
(530,475,cs),
(514,475,o),
(497,472,o),
(485,468,c),
(485,287,ls),
(485,154,o),
(443,74,o),
(349,74,cs),
(268,74,o),
(229,130,o),
(229,239,cs),
(229,281,l),
(199,289,o),
(169,289,o),
(139,281,c),
(139,227,ls),
(139,72,o),
(209,-14,o),
(337,-14,cs)
);
},
{
pos = (45,0);
ref = _part.boucle.bas;
},
{
pos = (-1,0);
ref = _part.i;
},
{
closed = 1;
nodes = (
(575,0,l),
(575,300,l),
(487,300,l),
(487,0,l)
);
}
);
width = 666;
}
);
},
{
color = 6;
export = 0;
glyphname = _part.z;
lastChange = "2023-02-13 11:45:07 +0000";
layers = (
{
anchors = (
{
name = "#fina";
pos = (394,50);
}
);
layerId = "6DBDBFCA-DF26-4695-B281-FA25C6EAD80F";
shapes = (
{
closed = 1;
nodes = (
(418,-519,o),
(474,-425,o),
(474,-210,cs),
(474,26,o),
(406,165,o),
(290,165,cs),
(261,165,o),
(226,152,o),
(205,134,c),
(231,121,l),
(418,407,l),
(412,440,o),
(394,464,o),
(365,474,c),
(330,465,o),
(265,459,o),
(209,459,cs),
(144,459,o),
(87,467,o),
(41,482,c),
(27,465,o),
(19,431,o),
(23,399,c),
(78,381,o),
(133,374,o),
(211,374,cs),
(232,374,o),
(273,376,o),
(304,379,c),
(87,41,l),
(97,17,o),
(126,-5,o),
(157,-11,c),
(176,19,ls),
(202,59,o),
(241,85,o),
(277,85,cs),
(349,85,o),
(383,-10,o),
(383,-209,cs),
(383,-375,o),
(358,-436,o),
(291,-436,cs),
(249,-436,o),
(222,-400,o),
(222,-344,cs),
(222,-243,o),
(290,-137,o),
(420,-36,c),
(397,51,l),
(230,-72,o),
(135,-218,o),
(135,-353,cs),
(135,-451,o),
(199,-519,o),
(290,-519,cs)
);
}
);
width = 504;
}
);
},
{
color = 6;
export = 0;
glyphname = _part.b.fin;
lastChange = "2023-02-13 12:36:03 +0000";
layers = (
{
anchors = (
{
name = "_#fina";
pos = (99,404);
}
);
layerId = "6DBDBFCA-DF26-4695-B281-FA25C6EAD80F";
shapes = (
{
closed = 1;
nodes = (
(161,318,o),
(217,328,o),
(251,338,c),
(253,365,o),
(244,399,o),
(230,422,c),
(196,410,o),
(133,404,o),
(99,404,c),
(99,318,l)
);
}
);
width = 357;
}
);
},
{
color = 6;
export = 0;
glyphname = _part.b.in;
lastChange = "2023-02-13 11:45:07 +0000";
layers = (
{
layerId = "6DBDBFCA-DF26-4695-B281-FA25C6EAD80F";
shapes = (
{
closed = 1;
nodes = (
(75,-15,o),
(149,21,o),
(208,90,c),
(172,184,l),
(134,117,o),
(68,71,o),
(4,71,cs),
(-21,71,o),
(-37,56,o),
(-37,31,cs),
(-37,3,o),
(-24,-14,o),
(-3,-14,cs)
);
},
{
closed = 1;
nodes = (
(238,112,l),
(354,248,o),
(425,466,o),
(425,673,c),
(409,680,o),
(370,680,o),
(341,674,c),
(341,486,o),
(281,292,o),
(192,193,c)
);
}
);
width = 654;
}
);
},
{
color = 6;
export = 0;
glyphname = _part.b.ini;
lastChange = "2023-02-13 12:35:43 +0000";
layers = (
{
layerId = "6DBDBFCA-DF26-4695-B281-FA25C6EAD80F";
shapes = (
{
closed = 1;
nodes = (
(311,247,o),
(412,459,o),
(412,673,c),
(388,675,o),
(354,675,o),
(328,674,c),
(328,499,o),
(246,305,o),
(149,205,c),
(204,140,l)
);
},
{
closed = 1;
nodes = (
(125,53,o),
(169,112,o),
(207,163,c),
(139,221,l),
(107,172,o),
(42,104,o),
(-12,67,c),
(-3,33,o),
(15,9,o),
(44,-8,c)
);
}
);
width = 615;
}
);
},
{
color = 6;
export = 0;
glyphname = _part.boucle.bas;
lastChange = "2023-02-13 11:45:07 +0000";
layers = (
{
anchors = (
{
name = "#fina";
pos = (483,20);
}
);
layerId = "6DBDBFCA-DF26-4695-B281-FA25C6EAD80F";
shapes = (
{
closed = 1;
nodes = (
(476,-519,o),
(530,-432,o),
(530,-228,cs),
(530,51,l),
(445,51,l),
(445,-219,ls),
(445,-372,o),
(417,-436,o),
(350,-436,cs),
(307,-436,o),
(281,-403,o),
(281,-347,cs),
(281,-255,o),
(348,-162,o),
(478,-73,c),
(456,14,l),
(289,-97,o),
(194,-230,o),
(194,-353,cs),
(194,-451,o),
(257,-519,o),
(348,-519,cs)
);
}
);
width = 644;
}
);
},
{
color = 6;
export = 0;
glyphname = _part.c.fin;
lastChange = "2023-02-13 12:36:03 +0000";
layers = (
{
layerId = "6DBDBFCA-DF26-4695-B281-FA25C6EAD80F";
shapes = (
{
closed = 1;
nodes = (
(414,-14,o),
(489,25,o),
(537,89,c),
(520,112,o),
(501,131,o),
(479,144,c),
(438,99,o),
(393,71,o),
(333,71,cs),
(245,71,o),
(188,135,o),
(188,239,cs),
(188,332,o),
(238,397,o),
(315,397,cs),
(359,397,o),
(388,377,o),
(406,352,c),
(427,361,o),
(457,391,o),
(463,410,c),
(435,454,o),
(375,482,o),
(317,482,cs),
(190,482,o),
(96,377,o),
(96,235,cs),
(96,93,o),
(193,-14,o),
(333,-14,cs)
);
}
);
width = 517;
}
);
},
{
color = 6;
export = 0;
glyphname = _part.caps.barre;
lastChange = "2023-02-13 11:45:07 +0000";
layers = (
{
layerId = "6DBDBFCA-DF26-4695-B281-FA25C6EAD80F";
shapes = (
{
closed = 1;
nodes = (
(527,0,l),
(530,14,o),
(532,28,o),
(532,43,cs),
(532,58,o),
(531,74,o),
(527,86,c),
(162,86,l),
(159,74,o),
(158,60,o),
(158,44,cs),
(158,30,o),
(159,14,o),
(162,0,c)
);
}
);
width = 586;
}
);
},
{
color = 6;
export = 0;
glyphname = _part.caps.fut;
lastChange = "2023-02-13 12:50:07 +0000";
layers = (
{
layerId = "6DBDBFCA-DF26-4695-B281-FA25C6EAD80F";
shapes = (
{
closed = 1;
nodes = (
(158,-6,o),
(173,-4,o),
(188,0,c),
(188,705,l),
(171,709,o),
(157,711,o),
(142,711,cs),
(126,711,o),
(111,709,o),
(96,705,c),
(96,0,l),
(113,-4,o),
(127,-6,o),
(142,-6,cs)
);
}
);
width = 284;
}
);
},
{
color = 6;
export = 0;
glyphname = _part.e.fin;
lastChange = "2023-02-13 12:36:03 +0000";
layers = (
{
anchors = (
{
name = "_#fina";
pos = (336,70);
}
);
layerId = "6DBDBFCA-DF26-4695-B281-FA25C6EAD80F";
shapes = (
{
closed = 1;
nodes = (
(385,-14,o),
(435,1,o),
(478,27,c),
(478,52,o),
(468,85,o),
(449,100,c),
(413,81,o),
(374,70,o),
(336,70,c),
(332,52,o),
(329,35,o),
(329,18,cs),
(329,7,o),
(329,-3,o),
(332,-14,c)
);
}
);
width = 584;
}
);
},
{
color = 6;
export = 0;
glyphname = _part.e.in;
lastChange = "2023-02-13 11:45:07 +0000";
layers = (
{
layerId = "6DBDBFCA-DF26-4695-B281-FA25C6EAD80F";
shapes = (
{
closed = 1;
nodes = (
(363,166,o),
(414,233,o),
(414,323,c),
(328,323,l),
(328,266,o),
(279,204,o),
(178,140,c),
(228,77,l)
);
},
{
closed = 1;
nodes = (
(60,-14,o),
(131,13,o),
(211,70,c),
(160,133,l),
(87,88,o),
(44,71,o),
(-2,71,cs),
(-24,71,o),
(-38,55,o),
(-38,29,cs),
(-38,4,o),
(-26,-14,o),
(-9,-14,cs)
);
}
);
width = 474;
}
);
},
{
color = 6;
export = 0;
glyphname = _part.e.ini;
lastChange = "2023-02-13 12:35:43 +0000";
layers = (
{
anchors = (
{
name = "#fina";
pos = (286,70);
},
{
name = top;
pos = (224,468);
}
);
layerId = "6DBDBFCA-DF26-4695-B281-FA25C6EAD80F";
shapes = (
{
closed = 1;
nodes = (
(302,-14,o),
(316,3,o),
(316,28,cs),
(316,54,o),
(304,70,o),
(286,70,cs),
(211,70,o),
(158,102,o),
(140,158,c),
(137,178,l),
(126,195,o),
(121,220,o),
(121,251,cs),
(121,338,o),
(163,400,o),
(221,400,cs),
(260,400,o),
(287,373,o),
(287,332,cs),
(287,266,o),
(225,224,o),
(109,211,c),
(115,136,l),
(261,136,o),
(373,219,o),
(373,327,cs),
(373,417,o),
(310,482,o),
(224,482,cs),
(117,482,o),
(35,383,o),
(35,256,cs),
(35,202,o),
(46,152,o),
(68,111,cs),
(109,31,o),
(185,-14,o),
(281,-14,cs)
);
}
);
width = 389;
}
);
metricLeft = o.init;
},
{
color = 6;
export = 0;
glyphname = _part.f.in;
lastChange = "2023-02-13 11:45:07 +0000";
layers = (
{
layerId = "6DBDBFCA-DF26-4695-B281-FA25C6EAD80F";
shapes = (
{
closed = 1;
nodes = (
(49,-14,o),
(118,14,o),
(171,78,c),
(159,193,l),
(96,104,o),
(39,71,o),
(-2,71,cs),
(-24,71,o),
(-43,59,o),
(-43,31,cs),
(-43,1,o),
(-29,-14,o),
(-9,-14,cs)
);
},
{
closed = 1;
nodes = (
(224,139,l),
(352,254,o),
(436,460,o),
(436,693,c),
(418,700,o),
(379,700,o),
(352,694,c),
(352,506,o),
(284,316,o),
(185,227,c)
);
}
);
width = 451;
}
);
},
{
color = 6;
export = 0;
glyphname = _part.f.ini;
lastChange = "2023-02-13 12:35:43 +0000";
layers = (
{
layerId = "6DBDBFCA-DF26-4695-B281-FA25C6EAD80F";
shapes = (
{
closed = 1;
nodes = (
(273,233,o),
(364,455,o),
(364,693,c),
(347,700,o),
(308,700,o),
(280,694,c),
(280,508,o),
(211,313,o),
(113,224,c),
(132,124,l)
);
},
{
closed = 1;
nodes = (
(-72,33,o),
(-54,1,o),
(-32,-9,c),
(16,11,o),
(69,56,o),
(106,108,c),
(75,193,l),
(38,141,o),
(-17,93,o),
(-72,64,c)
);
}
);
width = 407;
}
);
},
{
color = 6;
export = 0;
glyphname = _part.h.in;
lastChange = "2023-02-13 11:45:07 +0000";
layers = (
{
layerId = "6DBDBFCA-DF26-4695-B281-FA25C6EAD80F";
shapes = (
{
closed = 1;
nodes = (
(91,-14,o),
(155,42,o),
(251,211,c),
(220,332,l),
(128,140,o),
(69,71,o),
(-2,71,cs),
(-23,71,o),
(-37,54,o),
(-37,29,cs),
(-37,4,o),
(-25,-14,o),
(-8,-14,cs)
);
},
{
closed = 1;
nodes = (
(348,378,l),
(426,495,o),
(467,618,o),
(467,733,c),
(441,743,o),
(405,741,o),
(383,734,c),
(383,620,o),
(335,493,o),
(238,352,c)
);
}
);
width = 643;
}
);
},
{
color = 6;
export = 0;
glyphname = _part.h.ini;
lastChange = "2023-02-13 12:35:43 +0000";
layers = (
{
layerId = "6DBDBFCA-DF26-4695-B281-FA25C6EAD80F";
shapes = (
{
closed = 1;
nodes = (
(345,378,l),
(431,510,o),
(465,633,o),
(465,738,c),
(440,745,o),
(409,749,o),
(381,750,c),
(381,644,o),
(348,519,o),
(235,356,c)
);
},
{
closed = 1;
nodes = (
(161,191,o),
(217,241,o),
(264,298,c),
(198,350,l),
(164,307,o),
(115,271,o),
(85,253,c),
(88,217,o),
(106,191,o),
(129,174,c)
);
}
);
width = 575;
}
);
},
{
color = 6;
export = 0;
glyphname = _part.h.out;
lastChange = "2023-02-13 11:45:07 +0000";
layers = (
{
anchors = (
{
name = "#fina";
pos = (643,71);
}
);
layerId = "6DBDBFCA-DF26-4695-B281-FA25C6EAD80F";
shapes = (
{
closed = 1;
nodes = (
(658,-14,o),
(672,2,o),
(672,28,cs),
(672,52,o),
(663,71,o),
(643,71,cs),
(598,71,o),
(580,103,o),
(580,180,cs),
(580,249,l),
(489,249,l),
(489,162,ls),
(489,50,o),
(542,-14,o),
(637,-14,cs)
);
}
);
width = 643;
}
);
},
{
color = 6;
export = 0;
glyphname = _part.i.fin;
lastChange = "2023-02-13 12:36:03 +0000";
layers = (
{
anchors = (
{
name = "_#fina";
pos = (209,71);
}
);
layerId = "6DBDBFCA-DF26-4695-B281-FA25C6EAD80F";
shapes = (
{
closed = 1;
nodes = (
(242,-14,o),
(276,2,o),
(297,26,c),
(298,50,o),
(281,80,o),
(259,91,c),
(241,77,o),
(223,71,o),
(209,71,c),
(195,46,o),
(193,17,o),
(203,-14,c)
);
}
);
width = 359;
}
);
},
{
color = 6;
export = 0;
glyphname = _part.i.in;
lastChange = "2023-02-13 11:45:07 +0000";
layers = (
{
layerId = "6DBDBFCA-DF26-4695-B281-FA25C6EAD80F";
shapes = (
{
closed = 1;
nodes = (
(-26,71,o),
(-37,51,o),
(-37,29,cs),
(-37,8,o),
(-27,-14,o),
(-8,-14,cs),
(47,-14,o),
(94,9,o),
(130,45,cs),
(186,101,o),
(218,217,o),
(218,321,c),
(140,321,l),
(140,253,o),
(127,176,o),
(88,124,cs),
(60,88,o),
(27,71,o),
(-1,71,cs)
);
}
);
width = 293;
}
);
},
{
color = 6;
export = 0;
glyphname = _part.i.ini;
lastChange = "2023-02-13 12:35:43 +0000";
layers = (
{
layerId = "6DBDBFCA-DF26-4695-B281-FA25C6EAD80F";
shapes = (
{
closed = 1;
nodes = (
(133,48,o),
(218,198,o),
(218,322,cs),
(218,373,l),
(140,373,l),
(140,348,ls),
(140,198,o),
(45,103,o),
(-2,59,c),
(4,28,o),
(27,4,o),
(56,-6,c)
);
}
);
width = 293;
}
);
},
{
color = 6;
export = 0;
glyphname = _part.i.out;
lastChange = "2023-02-13 11:45:07 +0000";
layers = (
{
anchors = (
{
name = "#fina";
pos = (251,71);
}
);
layerId = "6DBDBFCA-DF26-4695-B281-FA25C6EAD80F";
shapes = (
{
closed = 1;
nodes = (
(269,-14,o),
(280,6,o),
(280,28,cs),
(280,49,o),
(273,71,o),
(251,71,cs),
(207,71,o),
(190,112,o),
(190,182,cs),
(190,285,l),
(108,285,l),
(108,182,ls),
(108,53,o),
(161,-14,o),
(245,-14,cs)
);
}
);
width = 252;
}
);
},
{
color = 6;
export = 0;
glyphname = _part.j.in;
lastChange = "2023-02-13 11:45:07 +0000";
layers = (
{
layerId = "6DBDBFCA-DF26-4695-B281-FA25C6EAD80F";
shapes = (
{
closed = 1;
nodes = (
(105,-14,o),
(188,123,o),
(242,284,c),
(230,295,l),
(230,-9,l),
(320,-9,l),
(320,458,l),
(298,470,o),
(261,477,o),
(230,474,c),
(166,288,o),
(81,71,o),
(-15,71,cs),
(-42,71,o),
(-53,51,o),
(-53,29,cs),
(-53,8,o),
(-43,-14,o),
(-24,-14,cs)
);
}
);
width = 453;
}
);
},
{
color = 3;
export = 0;
glyphname = _part.j.ini;
lastChange = "2023-02-13 12:35:43 +0000";
layers = (
{
layerId = "6DBDBFCA-DF26-4695-B281-FA25C6EAD80F";
shapes = (
{
closed = 1;
nodes = (
(326,-9,l),
(326,379,l),
(236,395,l),
(236,-9,l)
);
},
{
pos = (22,0);
ref = _part.p.ini;
}
);
width = 454;
}
);
},
{
color = 6;
export = 0;
glyphname = _part.k.fin;
lastChange = "2023-02-13 12:36:03 +0000";
layers = (
{
layerId = "6DBDBFCA-DF26-4695-B281-FA25C6EAD80F";
shapes = (
{
closed = 1;
nodes = (
(572,-8,o),
(590,30,o),
(590,58,c),
(550,71,o),
(524,92,o),
(466,131,cs),
(395,179,ls),
(363,201,o),
(327,212,o),
(270,217,c),
(250,202,o),
(242,165,o),
(245,150,c),
(286,150,o),
(330,127,o),
(357,108,cs),
(427,59,ls),
(477,24,o),
(531,-14,o),
(555,-14,c)
);
}
);
width = 601;
}
);
},
{
color = 6;
export = 0;
glyphname = _part.k.out;
lastChange = "2023-02-13 11:45:07 +0000";
layers = (
{
layerId = "6DBDBFCA-DF26-4695-B281-FA25C6EAD80F";
shapes = (
{
closed = 1;
nodes = (
(616,-14,o),
(630,2,o),
(630,28,cs),
(630,53,o),
(618,71,o),
(601,71,cs),
(565,71,o),
(539,83,o),
(466,131,cs),
(389,182,ls),
(356,203,o),
(311,216,o),
(267,216,c),
(242,150,l),
(279,150,o),
(315,137,o),
(352,111,cs),
(424,59,ls),
(492,9,o),
(546,-14,o),
(594,-14,cs)
);
}
);
width = 601;
}
);
},
{
color = 6;
export = 0;
glyphname = _part.l.fin;
lastChange = "2023-02-13 12:36:03 +0000";
layers = (
{
layerId = "6DBDBFCA-DF26-4695-B281-FA25C6EAD80F";
shapes = (
{
closed = 1;
nodes = (
(362,-14,o),
(395,-5,o),
(427,26,c),
(424,52,o),
(407,77,o),
(387,91,c),
(369,77,o),
(350,71,o),
(336,71,cs),
(289,71,o),
(256,111,o),
(229,180,cs),
(196,274,o),
(174,433,o),
(174,598,c),
(162,599,o),
(152,600,o),
(141,600,cs),
(123,600,o),
(105,598,o),
(87,592,c),
(87,487,o),
(98,293,o),
(147,148,cs),
(183,55,o),
(240,-14,o),
(327,-14,cs)
);
}
);
width = 415;
}
);
},
{
color = 6;
export = 0;
glyphname = _part.l.in;
lastChange = "2023-02-13 11:51:34 +0000";
layers = (
{
layerId = "6DBDBFCA-DF26-4695-B281-FA25C6EAD80F";
shapes = (
{
closed = 1;
nodes = (
(317,210,o),
(389,410,o),
(389,656,c),
(363,668,o),
(331,669,o),
(303,660,c),
(303,461,o),
(252,281,o),
(166,176,c),
(206,94,l)
);
},
{
closed = 1;
nodes = (
(59,-15,o),
(133,23,o),
(196,95,c),
(155,176,l),
(106,108,o),
(49,71,o),
(-12,71,cs),
(-34,71,o),
(-48,55,o),
(-48,29,cs),
(-48,4,o),
(-36,-14,o),
(-18,-14,cs)
);
}
);
width = 404;
}
);
},
{
color = 6;
export = 0;
glyphname = _part.l.ini;
lastChange = "2023-02-13 12:35:43 +0000";
layers = (
{
layerId = "6DBDBFCA-DF26-4695-B281-FA25C6EAD80F";
shapes = (
{
closed = 1;
nodes = (
(305,244,o),
(400,449,o),
(400,656,c),
(375,664,o),
(341,665,o),
(314,660,c),
(314,487,o),
(238,299,o),
(149,202,c),
(204,140,l)
);
},
{
closed = 1;
nodes = (
(125,53,o),
(169,112,o),
(207,163,c),
(139,221,l),
(107,172,o),
(42,104,o),
(-12,67,c),
(-3,33,o),
(15,9,o),
(44,-8,c)
);
}
);
width = 415;
}
);
},
{
color = 6;
export = 0;
glyphname = _part.l.out;
lastChange = "2023-02-13 11:48:56 +0000";
layers = (
{
layerId = "6DBDBFCA-DF26-4695-B281-FA25C6EAD80F";
shapes = (
{
closed = 1;
nodes = (
(388,-14,o),
(402,2,o),
(402,28,cs),
(402,53,o),
(390,71,o),
(372,71,cs),
(328,71,o),
(287,101,o),
(247,167,cs),
(187,266,o),
(174,435,o),
(174,598,c),
(150,605,o),
(113,602,o),
(87,592,c),
(87,414,o),
(120,217,o),
(175,117,cs),
(224,26,o),
(295,-14,o),
(366,-14,cs)
);
}
);
width = 372;
}
);
},
{
color = 6;
export = 0;
glyphname = _part.n.in;
lastChange = "2023-02-13 11:45:07 +0000";
layers = (
{
layerId = "6DBDBFCA-DF26-4695-B281-FA25C6EAD80F";
shapes = (
{
closed = 1;
nodes = (
(90,-14,o),
(148,44,o),
(182,174,cs),
(219,317,ls),
(233,373,o),
(252,397,o),
(280,397,c),
(291,425,o),
(292,460,o),
(288,482,c),
(210,482,o),
(157,430,o),
(130,327,cs),
(100,211,ls),
(74,110,o),
(42,71,o),
(-1,71,cs),
(-23,71,o),
(-37,55,o),
(-37,29,cs),
(-37,4,o),
(-25,-14,o),
(-8,-14,cs)
);
}
);
width = 401;
}
);
},
{
color = 6;
export = 0;
glyphname = _part.n.ini;
lastChange = "2023-02-13 12:35:43 +0000";
layers = (
{
layerId = "6DBDBFCA-DF26-4695-B281-FA25C6EAD80F";
shapes = (
{
closed = 1;
nodes = (
(202,323,ls),
(243,386,o),
(268,397,o),
(284,397,c),
(295,420,o),
(299,462,o),
(292,482,c),
(234,482,o),
(186,455,o),
(125,355,cs),
(95,306,l),
(108,288,o),
(134,267,o),
(161,260,c)
);
}
);
width = 407;
}
);
},
{
color = 6;
export = 0;
glyphname = _part.n.out;
lastChange = "2023-02-13 11:45:07 +0000";
layers = (
{
anchors = (
{
name = "#fina";
pos = (266,71);
}
);
layerId = "6DBDBFCA-DF26-4695-B281-FA25C6EAD80F";
shapes = (
{
closed = 1;
nodes = (
(284,-14,o),
(295,6,o),
(295,28,cs),
(295,54,o),
(285,71,o),
(266,71,cs),
(227,71,o),
(206,97,o),
(206,173,cs),
(206,289,l),
(190,292,o),
(174,294,o),
(159,294,cs),
(144,294,o),
(131,292,o),
(116,289,c),
(116,162,ls),
(116,37,o),
(179,-14,o),
(259,-14,cs)
);
}
);
width = 267;
}
);
},
{
color = 6;
export = 0;
glyphname = _part.o.boucle;
lastChange = "2023-02-13 11:45:07 +0000";
layers = (
{
layerId = "6DBDBFCA-DF26-4695-B281-FA25C6EAD80F";
shapes = (
{
closed = 1;
nodes = (
(465,306,o),
(488,309,o),
(513,320,c),
(489,400,l),
(465,396,o),
(440,395,o),
(427,395,cs),
(386,395,o),
(341,410,o),
(325,441,c),
(232,425,l),
(247,356,o),
(355,306,o),
(433,306,cs)
);
}
);
width = 609;
}
);
},
{
color = 6;
export = 0;
glyphname = _part.o.in;
lastChange = "2023-02-13 11:45:07 +0000";
layers = (
{
layerId = "6DBDBFCA-DF26-4695-B281-FA25C6EAD80F";
shapes = (
{
closed = 1;
nodes = (
(-73,71,o),
(-87,55,o),
(-87,29,cs),
(-87,4,o),
(-75,-14,o),
(-58,-14,cs),
(17,-14,o),
(81,31,o),
(121,113,c),
(72,204,l),
(44,124,o),
(-5,71,o),
(-51,71,cs)
);
}
);
width = 284;
}
);
},
{
color = 6;
export = 0;
glyphname = _part.p.in;
lastChange = "2023-02-13 11:45:07 +0000";
layers = (
{
layerId = "6DBDBFCA-DF26-4695-B281-FA25C6EAD80F";
shapes = (
{
closed = 1;
nodes = (
(122,-14,o),
(177,95,o),
(234,253,cs),
(270,352,l),
(208,297,l),
(329,295,l),
(314,469,l),
(290,479,o),
(249,481,o),
(223,474,c),
(206,410,o),
(177,342,o),
(156,280,cs),
(118,173,o),
(68,71,o),
(1,71,cs),
(-26,71,o),
(-37,51,o),
(-37,29,cs),
(-37,8,o),
(-26,-14,o),
(-5,-14,cs)
);
}
);
width = 561;
}
);
metricLeft = n;
},
{
color = 6;
export = 0;
glyphname = _part.p.ini;
lastChange = "2023-02-13 12:35:43 +0000";
layers = (
{
layerId = "6DBDBFCA-DF26-4695-B281-FA25C6EAD80F";
shapes = (
{
closed = 1;
nodes = (
(35,26,o),
(193,231,o),
(253,356,c),
(183,335,l),
(202,324,o),
(233,316,o),
(264,316,cs),
(277,316,o),
(292,318,o),
(304,320,c),
(304,469,l),
(290,476,o),
(265,483,o),
(239,483,cs),
(235,483,o),
(229,482,o),
(224,482,c),
(149,329,o),
(34,172,o),
(-68,58,c),
(-60,29,o),
(-38,9,o),
(-8,-3,c)
);
}
);
width = 530;
}
);
},
{
color = 6;
export = 0;
glyphname = _part.r.in;
lastChange = "2023-02-13 11:45:07 +0000";
layers = (
{
layerId = "6DBDBFCA-DF26-4695-B281-FA25C6EAD80F";
shapes = (
{
closed = 1;
nodes = (
(153,-14,o),
(220,165,o),
(220,343,cs),
(220,415,o),
(205,496,o),
(176,548,c),
(141,548,o),
(95,531,o),
(80,513,c),
(80,486,o),
(105,424,o),
(125,406,c),
(131,388,o),
(132,361,o),
(132,345,cs),
(132,218,o),
(87,71,o),
(0,71,c),
(-5,43,o),
(-6,15,o),
(-7,-14,c)
);
}
);
width = 327;
}
);
},
{
color = 6;
export = 0;
glyphname = _part.r.ini;
lastChange = "2023-02-13 12:35:43 +0000";
layers = (
{
layerId = "6DBDBFCA-DF26-4695-B281-FA25C6EAD80F";
shapes = (
{
closed = 1;
nodes = (
(209,96,o),
(232,226,o),
(232,343,cs),
(232,415,o),
(218,496,o),
(188,548,c),
(153,548,o),
(107,531,o),
(92,513,c),
(92,486,o),
(115,426,o),
(139,405,c),
(143,387,o),
(144,361,o),
(144,345,cs),
(144,227,o),
(121,118,o),
(80,33,c),
(106,10,o),
(134,1,o),
(165,0,c)
);
}
);
width = 573;
}
);
},
{
color = 6;
export = 0;
glyphname = _part.s.in;
lastChange = "2023-02-13 11:45:07 +0000";
layers = (
{
layerId = "6DBDBFCA-DF26-4695-B281-FA25C6EAD80F";
shapes = (
{
closed = 1;
nodes = (
(78,-14,o),
(139,34,o),
(211,156,cs),
(338,370,ls),
(383,446,o),
(399,481,o),
(405,509,c),
(335,532,l),
(159,237,ls),
(90,121,o),
(42,71,o),
(-1,71,cs),
(-23,71,o),
(-37,55,o),
(-37,29,cs),
(-37,4,o),
(-25,-14,o),
(-8,-14,cs)
);
}
);
width = 553;
}
);
},
{
color = 6;
export = 0;
glyphname = _part.s.ini;
lastChange = "2023-02-13 12:35:43 +0000";
layers = (
{
layerId = "6DBDBFCA-DF26-4695-B281-FA25C6EAD80F";
shapes = (
{
closed = 1;
nodes = (
(9,19,o),
(34,-2,o),
(68,-6,c),
(143,71,o),
(251,232,o),
(324,356,cs),
(357,413,o),
(394,475,o),
(400,509,c),
(324,538,l),
(229,356,o),
(132,198,o),
(2,50,c)
);
}
);
visible = 1;
width = 566;
}
);
},
{
color = 6;
export = 0;
glyphname = _part.s.out;
lastChange = "2023-02-13 11:45:07 +0000";
layers = (
{
anchors = (
{
name = "_#fina";
pos = (439,-5);
}
);
layerId = "6DBDBFCA-DF26-4695-B281-FA25C6EAD80F";
shapes = (
{
closed = 1;
nodes = (
(535,-14,o),
(549,2,o),
(549,28,cs),
(549,52,o),
(537,70,o),
(520,70,c),
(439,-5,l),
(468,-10,o),
(488,-14,o),
(513,-14,cs)
);
}
);
width = 553;
}
);
},
{
color = 6;
export = 0;
glyphname = _part.t.fin;
lastChange = "2023-02-13 12:36:03 +0000";
layers = (
{
layerId = "6DBDBFCA-DF26-4695-B281-FA25C6EAD80F";
shapes = (
{
closed = 1;
nodes = (
(448,-14,o),
(497,26,o),
(515,48,c),
(511,71,o),
(491,97,o),
(470,113,c),
(450,94,o),
(422,70,o),
(386,70,cs),
(333,70,o),
(325,123,o),
(325,170,cs),
(325,285,l),
(242,285,l),
(242,166,ls),
(242,62,o),
(281,-14,o),
(381,-14,cs)
);
}
);
width = 557;
}
);
},
{
color = 6;
export = 0;
glyphname = _part.t.in;
lastChange = "2023-02-13 11:45:07 +0000";
layers = (
{
layerId = "6DBDBFCA-DF26-4695-B281-FA25C6EAD80F";
shapes = (
{
closed = 1;
nodes = (
(-25,71,o),
(-37,53,o),
(-37,29,cs),
(-37,5,o),
(-26,-14,o),
(-8,-14,cs),
(129,-14,o),
(275,105,o),
(275,386,c),
(189,386,l),
(189,141,o),
(64,71,o),
(-1,71,cs)
);
}
);
width = 376;
}
);
},
{
color = 6;
export = 0;
glyphname = _part.t.ini;
lastChange = "2023-02-13 12:35:43 +0000";
layers = (
{
layerId = "6DBDBFCA-DF26-4695-B281-FA25C6EAD80F";
shapes = (
{
closed = 1;
nodes = (
(237,195,o),
(270,310,o),
(270,453,c),
(191,453,l),
(191,334,o),
(154,235,o),
(103,173,c),
(120,145,o),
(143,127,o),
(170,117,c)
);
}
);
width = 376;
}
);
},
{
color = 6;
export = 0;
glyphname = _part.t.out;
lastChange = "2023-02-13 12:08:19 +0000";
layers = (
{
anchors = (
{
name = "#fina";
pos = (403,71);
}
);
layerId = "6DBDBFCA-DF26-4695-B281-FA25C6EAD80F";
shapes = (
{
closed = 1;
nodes = (
(418,-14,o),
(432,3,o),
(432,28,cs),
(432,55,o),
(421,71,o),
(403,71,cs),
(340,71,o),
(297,134,o),
(297,255,c),
(213,241,l),
(208,83,o),
(282,-14,o),
(396,-14,cs)
);
}
);
width = 419;
}
);
},
{
color = 6;
export = 0;
glyphname = _part.x.fin;
lastChange = "2023-02-13 12:36:03 +0000";
layers = (
{
anchors = (
{
name = "_#fina";
pos = (121,70);
}
);
layerId = "6DBDBFCA-DF26-4695-B281-FA25C6EAD80F";
shapes = (
{
closed = 1;
nodes = (
(176,-14,o),
(223,8,o),
(246,29,c),
(239,53,o),
(227,76,o),
(210,95,c),
(183,78,o),
(153,70,o),
(121,70,c),
(111,56,o),
(104,18,o),
(116,-14,c)
);
}
);
width = 415;
}
);
},
{
color = 6;
export = 0;
glyphname = _part.x.in;
lastChange = "2023-02-13 11:45:07 +0000";
layers = (
{
layerId = "6DBDBFCA-DF26-4695-B281-FA25C6EAD80F";
shapes = (
{
closed = 1;
nodes = (
(-26,71,o),
(-37,51,o),
(-37,29,cs),
(-37,8,o),
(-27,-14,o),
(-8,-14,cs),
(106,-14,o),
(161,69,o),
(198,156,cs),
(272,330,ls),
(293,380,o),
(319,397,o),
(352,397,c),
(361,420,o),
(363,458,o),
(355,482,c),
(293,482,o),
(236,456,o),
(194,360,cs),
(127,205,ls),
(95,130,o),
(58,71,o),
(-1,71,cs)
);
}
);
width = 748;
}
);
},
{
color = 6;
export = 0;
glyphname = _part.z.fin;
lastChange = "2023-02-13 12:36:03 +0000";
layers = (
{
anchors = (
{
name = "_#fina";
pos = (112,39);
}
);
layerId = "6DBDBFCA-DF26-4695-B281-FA25C6EAD80F";
shapes = (
{
closed = 1;
nodes = (
(179,-18,o),
(251,29,o),
(284,51,c),
(280,84,o),
(266,110,o),
(240,126,c),
(203,106,o),
(131,55,o),
(112,39,c),
(149,-39,l)
);
}
);
width = 396;
}
);
},
{
color = 6;
export = 0;
glyphname = _part.z.in;
lastChange = "2023-02-13 11:45:07 +0000";
layers = (
{
layerId = "6DBDBFCA-DF26-4695-B281-FA25C6EAD80F";
shapes = (
{
closed = 1;
nodes = (
(129,-14,o),
(220,128,o),
(220,343,cs),
(220,421,o),
(203,499,o),
(176,548,c),
(134,553,o),
(96,538,o),
(80,513,c),
(80,485,o),
(106,423,o),
(125,406,c),
(129,393,o),
(132,370,o),
(132,345,cs),
(132,191,o),
(74,71,o),
(-1,71,cs),
(-23,71,o),
(-37,55,o),
(-37,29,cs),
(-37,4,o),
(-25,-14,o),
(-8,-14,cs)
);
}
);
width = 327;
}
);
},
{
color = 6;
export = 0;
glyphname = _part.b.in.cv01;
lastChange = "2023-02-13 11:45:07 +0000";
layers = (
{
layerId = "6DBDBFCA-DF26-4695-B281-FA25C6EAD80F";
shapes = (
{
closed = 1;
nodes = (
(351,293,o),
(411,477,o),
(411,674,c),
(383,681,o),
(357,681,o),
(327,674,c),
(327,512,o),
(275,340,o),
(198,243,c),
(228,144,l)
);
},
{
closed = 1;
nodes = (
(20,-14,o),
(140,48,o),
(219,156,c),
(173,238,l),
(95,128,o),
(0,70,o),
(-103,70,cs),
(-124,70,o),
(-138,54,o),
(-138,29,cs),
(-138,4,o),
(-126,-14,o),
(-108,-14,cs)
);
}
);
width = 614;
}
);
},
{
color = 6;
export = 0;
glyphname = _part.b.in.cv02;
lastChange = "2023-02-13 11:45:07 +0000";
layers = (
{
layerId = "6DBDBFCA-DF26-4695-B281-FA25C6EAD80F";
shapes = (
{
closed = 1;
nodes = (
(273,361,o),
(363,492,o),
(363,673,c),
(342,684,o),
(313,684,o),
(279,674,c),
(279,540,o),
(226,446,o),
(128,404,c),
(133,321,l)
);
},
{
closed = 1;
nodes = (
(-166,344,o),
(-155,337,cs),
(-121,316,o),
(-65,301,o),
(-4,301,cs),
(31,301,o),
(72,306,o),
(104,318,c),
(87,398,l),
(53,383,o),
(18,378,o),
(-17,378,cs),
(-56,378,o),
(-91,386,o),
(-116,401,cs),
(-125,406,o),
(-131,408,o),
(-138,408,cs),
(-156,408,o),
(-172,387,o),
(-172,365,cs),
(-172,355,o)
);
}
);
width = 566;
}
);
},
{
color = 6;
export = 0;
glyphname = _part.b.in.cv03;
lastChange = "2023-02-13 11:45:07 +0000";
layers = (
{
layerId = "6DBDBFCA-DF26-4695-B281-FA25C6EAD80F";
shapes = (
{
closed = 1;
nodes = (
(288,299,o),
(360,480,o),
(360,676,c),
(343,688,o),
(299,692,o),
(276,674,c),
(276,507,o),
(219,364,o),
(142,270,c),
(172,169,l)
);
},
{
closed = 1;
nodes = (
(-83,-31,o),
(-59,-14,o),
(-39,2,cs),
(58,80,o),
(136,147,o),
(162,183,c),
(135,282,l),
(107,235,o),
(35,175,o),
(-43,110,cs),
(-74,84,o),
(-117,51,o),
(-157,19,cs),
(-173,6,o),
(-180,-6,o),
(-180,-19,cs),
(-180,-38,o),
(-151,-67,o),
(-129,-67,cs),
(-121,-67,o),
(-115,-61,o),
(-98,-46,cs)
);
}
);
width = 563;
}
);
},
{
color = 6;
export = 0;
glyphname = _part.caps.fut.alt;
lastChange = "2023-02-13 11:45:07 +0000";
layers = (
{
layerId = "6DBDBFCA-DF26-4695-B281-FA25C6EAD80F";
shapes = (
{
closed = 1;
nodes = (
(192,0,l),
(192,705,l),
(100,705,l),
(100,0,l)
);
}
);
width = 601;
}
);
},
{
color = 6;
export = 0;
glyphname = _part.e.cv02.fin;
lastChange = "2023-02-13 12:36:03 +0000";
layers = (
{
anchors = (
{
name = "_#fina";
pos = (121,70);
}
);
layerId = "6DBDBFCA-DF26-4695-B281-FA25C6EAD80F";
shapes = (
{
closed = 1;
nodes = (
(171,-14,o),
(220,3,o),
(250,25,c),
(251,56,o),
(235,83,o),
(216,99,c),
(184,77,o),
(154,70,o),
(121,70,c),
(109,44,o),
(109,8,o),
(114,-14,c)
);
}
);
width = 249;
}
);
},
{
color = 6;
export = 0;
glyphname = _part.h.in.cv01;
lastChange = "2023-02-13 11:45:07 +0000";
layers = (
{
layerId = "6DBDBFCA-DF26-4695-B281-FA25C6EAD80F";
shapes = (
{
closed = 1;
nodes = (
(82,-14,o),
(178,63,o),
(254,223,c),
(217,336,l),
(152,172,o),
(55,70,o),
(-34,70,cs),
(-56,70,o),
(-70,54,o),
(-70,29,cs),
(-70,4,o),
(-58,-14,o),
(-41,-14,cs)
);
},
{
closed = 1;
nodes = (
(364,381,l),
(440,503,o),
(479,623,o),
(479,733,c),
(447,740,o),
(416,741,o),
(395,734,c),
(395,618,o),
(348,493,o),
(251,353,c)
);
}
);
width = 654;
}
);
},
{
color = 6;
export = 0;
glyphname = _part.h.in.cv02;
lastChange = "2023-02-13 11:45:07 +0000";
layers = (
{
layerId = "6DBDBFCA-DF26-4695-B281-FA25C6EAD80F";
shapes = (
{
closed = 1;
nodes = (
(267,402,o),
(343,533,o),
(343,733,c),
(323,740,o),
(285,741,o),
(259,734,c),
(259,577,o),
(208,472,o),
(95,400,c),
(100,314,l)
);
},
{
closed = 1;
nodes = (
(9,291,o),
(46,298,o),
(72,310,c),
(64,397,l),
(40,382,o),
(7,373,o),
(-29,373,cs),
(-61,373,o),
(-93,382,o),
(-118,397,cs),
(-131,406,o),
(-138,409,o),
(-145,409,cs),
(-164,409,o),
(-181,389,o),
(-181,366,cs),
(-181,348,o),
(-170,332,o),
(-150,321,cs),
(-117,302,o),
(-73,291,o),
(-32,291,cs)
);
}
);
width = 519;
}
);
},
{
color = 6;
export = 0;
glyphname = _part.h.in.cv03;
lastChange = "2023-02-13 11:45:07 +0000";
layers = (
{
layerId = "6DBDBFCA-DF26-4695-B281-FA25C6EAD80F";
shapes = (
{
closed = 1;
nodes = (
(266,389,l),
(346,514,o),
(378,634,o),
(378,733,c),
(366,738,o),
(351,739,o),
(336,739,cs),
(322,739,o),
(308,738,o),
(294,734,c),
(294,636,o),
(264,515,o),
(156,363,c)
);
},
{
closed = 1;
nodes = (
(11,30,o),
(123,150,o),
(158,228,c),
(126,320,l),
(62,210,o),
(-21,118,o),
(-143,12,cs),
(-159,-1,o),
(-166,-13,o),
(-166,-26,cs),
(-166,-45,o),
(-137,-74,o),
(-115,-74,cs),
(-107,-74,o),
(-101,-67,o),
(-91,-58,cs)
);
}
);
width = 563;
}
);
},
{
color = 6;
export = 0;
glyphname = _part.i.in.cv01;
lastChange = "2023-02-13 11:45:07 +0000";
layers = (
{
layerId = "6DBDBFCA-DF26-4695-B281-FA25C6EAD80F";
shapes = (
{
closed = 1;
nodes = (
(149,-14,o),
(281,145,o),
(281,369,c),
(201,381,l),
(201,201,o),
(102,70,o),
(-33,70,cs),
(-54,70,o),
(-68,54,o),
(-68,29,cs),
(-68,3,o),
(-56,-14,o),
(-37,-14,cs)
);
}
);
width = 395;
}
);
},
{
color = 6;
export = 0;
glyphname = _part.i.in.cv02;
lastChange = "2023-02-13 11:45:07 +0000";
layers = (
{
layerId = "6DBDBFCA-DF26-4695-B281-FA25C6EAD80F";
shapes = (
{
closed = 1;
nodes = (
(206,268,l),
(206,448,l),
(189,469,o),
(156,478,o),
(129,476,c),
(116,441,l),
(116,268,l)
);
},
{
closed = 1;
nodes = (
(-96,319,o),
(-69,315,o),
(-37,315,cs),
(51,315,o),
(132,347,o),
(166,395,c),
(129,476,l),
(105,431,o),
(36,396,o),
(-32,396,cs),
(-55,396,o),
(-78,400,o),
(-100,405,cs),
(-104,406,o),
(-108,407,o),
(-113,407,cs),
(-132,407,o),
(-148,387,o),
(-148,362,cs),
(-148,345,o),
(-139,334,o),
(-121,328,cs)
);
}
);
width = 248;
}
);
},
{
color = 6;
export = 0;
glyphname = _part.i.in.cv03;
lastChange = "2023-02-13 11:45:07 +0000";
layers = (
{
layerId = "6DBDBFCA-DF26-4695-B281-FA25C6EAD80F";
shapes = (
{
closed = 1;
nodes = (
(-115,-59,o),
(-74,-25,cs),
(61,88,o),
(180,199,o),
(180,405,c),
(95,405,l),
(95,242,o),
(-48,109,o),
(-168,14,cs),
(-184,2,o),
(-192,-9,o),
(-192,-22,cs),
(-192,-41,o),
(-163,-70,o),
(-143,-70,cs),
(-129,-70,o)
);
}
);
width = 248;
}
);
},
{
color = 6;
export = 0;
glyphname = _part.j.in.cv01;
lastChange = "2023-02-13 11:45:07 +0000";
layers = (
{
layerId = "6DBDBFCA-DF26-4695-B281-FA25C6EAD80F";
shapes = (
{
closed = 1;
nodes = (
(104,-14,o),
(196,75,o),
(288,301,c),
(273,310,l),
(273,-9,l),
(363,-9,l),
(363,458,l),
(341,474,o),
(300,481,o),
(273,474,c),
(151,160,o),
(83,70,o),
(-33,70,cs),
(-53,70,o),
(-66,54,o),
(-66,29,cs),
(-66,4,o),
(-54,-14,o),
(-37,-14,cs)
);
}
);
width = 498;
}
);
},
{
color = 6;
export = 0;
glyphname = _part.l.in.cv01;
lastChange = "2023-02-13 11:45:07 +0000";
layers = (
{
layerId = "6DBDBFCA-DF26-4695-B281-FA25C6EAD80F";
shapes = (
{
closed = 1;
nodes = (
(391,279,o),
(451,463,o),
(451,660,c),
(423,667,o),
(395,667,o),
(365,660,c),
(365,498,o),
(313,326,o),
(236,229,c),
(268,130,l)
);
},
{
closed = 1;
nodes = (
(80,-14,o),
(188,43,o),
(259,142,c),
(213,224,l),
(144,123,o),
(61,70,o),
(-30,70,cs),
(-51,70,o),
(-65,54,o),
(-65,29,cs),
(-65,4,o),
(-53,-14,o),
(-35,-14,cs)
);
}
);
width = 467;
}
);
},
{
color = 6;
export = 0;
glyphname = _part.l.in.cv02;
lastChange = "2023-02-13 11:45:07 +0000";
layers = (
{
layerId = "6DBDBFCA-DF26-4695-B281-FA25C6EAD80F";
shapes = (
{
closed = 1;
nodes = (
(244,352,o),
(321,488,o),
(321,656,c),
(307,666,o),
(258,668,o),
(235,660,c),
(235,526,o),
(182,436,o),
(85,395,c),
(92,310,l)
);
},
{
closed = 1;
nodes = (
(9,291,o),
(46,298,o),
(72,310,c),
(64,397,l),
(40,382,o),
(7,373,o),
(-29,373,cs),
(-61,373,o),
(-93,382,o),
(-118,397,cs),
(-131,406,o),
(-138,409,o),
(-145,409,cs),
(-164,409,o),
(-181,389,o),
(-181,366,cs),
(-181,348,o),
(-170,332,o),
(-150,321,cs),
(-117,302,o),
(-73,291,o),
(-32,291,cs)
);
}
);
width = 291;
}
);
},
{
color = 6;
export = 0;
glyphname = _part.l.in.cv03;
lastChange = "2023-02-13 11:45:07 +0000";
layers = (
{
layerId = "6DBDBFCA-DF26-4695-B281-FA25C6EAD80F";
shapes = (
{
closed = 1;
nodes = (
(250,279,o),
(322,460,o),
(322,656,c),
(291,669,o),
(258,668,o),
(236,660,c),
(236,491,o),
(179,345,o),
(102,250,c),
(134,149,l)
);
},
{
closed = 1;
nodes = (
(-91,-31,o),
(-64,-10,o),
(-44,6,cs),
(53,84,o),
(98,127,o),
(124,163,c),
(95,262,l),
(67,215,o),
(29,179,o),
(-48,114,cs),
(-79,88,o),
(-122,51,o),
(-162,19,cs),
(-178,6,o),
(-185,-6,o),
(-185,-19,cs),
(-185,-38,o),
(-156,-67,o),
(-134,-67,cs),
(-126,-67,o),
(-119,-61,o),
(-110,-51,cs)
);
}
);
width = 349;
}
);
},
{
color = 6;
export = 0;
glyphname = _part.n.in.cv01;
lastChange = "2023-02-13 11:45:07 +0000";
layers = (
{
layerId = "6DBDBFCA-DF26-4695-B281-FA25C6EAD80F";
shapes = (
{
closed = 1;
nodes = (
(61,-14,o),
(153,52,o),
(213,188,cs),
(270,317,ls),
(301,386,o),
(318,397,o),
(337,397,c),
(348,421,o),
(351,448,o),
(345,482,c),
(280,482,o),
(238,448,o),
(194,351,cs),
(144,240,ls),
(91,123,o),
(28,70,o),
(-55,70,cs),
(-76,70,o),
(-90,54,o),
(-90,29,cs),
(-90,4,o),
(-78,-14,o),
(-61,-14,cs)
);
}
);
width = 400;
}
);
},
{
color = 6;
export = 0;
glyphname = _part.n.in.cv02;
lastChange = "2023-02-13 11:45:07 +0000";
layers = (
{
layerId = "6DBDBFCA-DF26-4695-B281-FA25C6EAD80F";
shapes = (
{
closed = 1;
nodes = (
(-155,389,o),
(-161,380,o),
(-161,368,cs),
(-161,345,o),
(-139,319,o),
(-120,319,cs),
(-114,319,o),
(-107,321,o),
(-101,325,cs),
(-36,371,o),
(19,397,o),
(48,397,c),
(60,419,o),
(65,454,o),
(56,482,c),
(0,482,o),
(-51,457,o),
(-145,396,cs)
);
}
);
width = 282;
}
);
},
{
color = 6;
export = 0;
glyphname = _part.n.in.cv03;
lastChange = "2023-02-13 11:45:07 +0000";
layers = (
{
layerId = "6DBDBFCA-DF26-4695-B281-FA25C6EAD80F";
shapes = (
{
closed = 1;
nodes = (
(-35,-6,o),
(23,70,o),
(77,198,cs),
(98,248,ls),
(142,354,o),
(175,397,o),
(212,397,c),
(223,415,o),
(227,456,o),
(220,482,c),
(133,482,o),
(84,433,o),
(20,283,cs),
(-5,224,ls),
(-50,119,o),
(-102,50,o),
(-158,22,cs),
(-181,10,o),
(-186,5,o),
(-186,-7,cs),
(-186,-37,o),
(-164,-73,o),
(-145,-73,cs),
(-139,-73,o),
(-133,-71,o),
(-124,-65,cs)
);
}
);
width = 334;
}
);
},
{
color = 6;
export = 0;
glyphname = _part.o.in.cv01;
lastChange = "2023-02-13 11:45:07 +0000";
layers = (
{
layerId = "6DBDBFCA-DF26-4695-B281-FA25C6EAD80F";
shapes = (
{
closed = 1;
nodes = (
(80,-14,o),
(191,67,o),
(240,194,c),
(223,215,o),
(201,229,o),
(172,237,c),
(124,135,o),
(40,70,o),
(-43,70,cs),
(-64,70,o),
(-78,54,o),
(-78,29,cs),
(-78,4,o),
(-66,-14,o),
(-48,-14,cs)
);
}
);
width = 394;
}
);
},
{
color = 6;
export = 0;
glyphname = _part.o.in.cv02;
lastChange = "2023-02-13 11:45:07 +0000";
layers = (
{
layerId = "6DBDBFCA-DF26-4695-B281-FA25C6EAD80F";
shapes = (
{
closed = 1;
nodes = (
(176,312,o),
(304,339,o),
(382,385,c),
(364,460,l),
(265,417,o),
(159,396,o),
(42,396,cs),
(22,396,o),
(9,383,o),
(9,355,cs),
(9,330,o),
(22,312,o),
(42,312,cs)
);
}
);
width = 470;
}
);
},
{
color = 6;
export = 0;
glyphname = _part.o.in.cv03;
lastChange = "2023-02-13 11:45:07 +0000";
layers = (
{
layerId = "6DBDBFCA-DF26-4695-B281-FA25C6EAD80F";
shapes = (
{
closed = 1;
nodes = (
(85,108,l),
(36,179,l),
(-176,20,ls),
(-188,11,o),
(-194,4,o),
(-194,-9,cs),
(-194,-30,o),
(-172,-59,o),
(-150,-59,cs),
(-143,-59,o),
(-135,-56,o),
(-124,-48,cs)
);
}
);
width = 351;
}
);
},
{
color = 6;
export = 0;
glyphname = _part.p.in.cv01;
lastChange = "2023-02-13 11:45:07 +0000";
layers = (
{
layerId = "6DBDBFCA-DF26-4695-B281-FA25C6EAD80F";
shapes = (
{
closed = 1;
nodes = (
(113,-14,o),
(225,103,o),
(310,347,c),
(240,289,l),
(356,286,l),
(356,461,l),
(331,474,o),
(296,480,o),
(274,474,c),
(164,183,o),
(79,70,o),
(-33,70,cs),
(-54,70,o),
(-68,54,o),
(-68,29,cs),
(-68,4,o),
(-56,-14,o),
(-38,-14,cs)
);
}
);
width = 469;
}
);
},
{
color = 6;
export = 0;
glyphname = _part.p.in.cv03;
lastChange = "2023-02-13 11:45:07 +0000";
layers = (
{
layerId = "6DBDBFCA-DF26-4695-B281-FA25C6EAD80F";
shapes = (
{
closed = 1;
nodes = (
(21,73,o),
(125,210,o),
(193,330,c),
(148,310,l),
(162,307,o),
(182,304,o),
(202,304,cs),
(222,304,o),
(242,307,o),
(259,309,c),
(259,469,l),
(241,480,o),
(201,483,o),
(175,478,c),
(64,272,o),
(-14,163,o),
(-174,12,cs),
(-191,-4,o),
(-198,-14,o),
(-198,-24,cs),
(-198,-44,o),
(-176,-71,o),
(-150,-71,cs),
(-141,-71,o),
(-135,-67,o),
(-121,-55,cs)
);
}
);
width = 485;
}
);
},
{
color = 6;
export = 0;
glyphname = _part.s.in.cv01;
lastChange = "2023-02-13 11:45:07 +0000";
layers = (
{
layerId = "6DBDBFCA-DF26-4695-B281-FA25C6EAD80F";
shapes = (
{
closed = 1;
nodes = (
(132,-14,o),
(204,62,o),
(256,156,cs),
(337,302,ls),
(392,401,o),
(421,473,o),
(427,509,c),
(362,532,l),
(198,226,ls),
(158,151,o),
(101,70,o),
(7,70,cs),
(-15,70,o),
(-30,54,o),
(-30,29,cs),
(-30,4,o),
(-18,-14,o),
(-1,-14,cs)
);
}
);
width = 553;
}
);
},
{
color = 6;
export = 0;
glyphname = _part.s.in.cv02;
lastChange = "2023-02-13 11:45:07 +0000";
layers = (
{
layerId = "6DBDBFCA-DF26-4695-B281-FA25C6EAD80F";
shapes = (
{
closed = 1;
nodes = (
(27,314,o),
(136,390,o),
(158,509,c),
(72,530,l),
(61,448,o),
(-16,397,o),
(-129,397,cs),
(-150,397,o),
(-162,382,o),
(-162,356,cs),
(-162,332,o),
(-147,314,o),
(-125,314,cs)
);
}
);
width = 328;
}
);
},
{
color = 6;
export = 0;
glyphname = _part.s.in.cv03;
lastChange = "2023-02-13 11:45:07 +0000";
layers = (
{
layerId = "6DBDBFCA-DF26-4695-B281-FA25C6EAD80F";
shapes = (
{
closed = 1;
nodes = (
(44,76,o),
(133,191,o),
(292,509,c),
(212,537,l),
(85,288,o),
(-33,124,o),
(-161,16,cs),
(-178,2,o),
(-183,-6,o),
(-183,-15,cs),
(-183,-37,o),
(-161,-70,o),
(-139,-70,cs),
(-130,-70,o),
(-123,-66,o),
(-115,-59,cs)
);
}
);
width = 553;
}
);
},
{
color = 6;
export = 0;
glyphname = _part.t.in.cv01;
lastChange = "2023-02-13 11:45:07 +0000";
layers = (
{
layerId = "6DBDBFCA-DF26-4695-B281-FA25C6EAD80F";
shapes = (
{
closed = 1;
nodes = (
(176,-14,o),
(321,148,o),
(321,386,c),
(235,386,l),
(235,202,o),
(123,70,o),
(-33,70,cs),
(-54,70,o),
(-68,54,o),
(-68,29,cs),
(-68,4,o),
(-55,-14,o),
(-37,-14,cs)
);
}
);
width = 421;
}
);
},
{
color = 6;
export = 0;
glyphname = _part.t.in.cv02;
lastChange = "2023-02-13 12:07:40 +0000";
layers = (
{
layerId = "6DBDBFCA-DF26-4695-B281-FA25C6EAD80F";
shapes = (
{
closed = 1;
nodes = (
(331,468,l),
(340,489,o),
(340,527,o),
(331,548,c),
(156,548,l),
(156,468,l)
);
},
{
closed = 1;
nodes = (
(121,254,o),
(152,254,o),
(183,260,c),
(183,722,l),
(167,727,o),
(153,729,o),
(138,729,cs),
(120,729,o),
(103,726,o),
(92,722,c),
(92,635,ls),
(92,507,o),
(-16,413,o),
(-135,400,cs),
(-154,398,o),
(-165,384,o),
(-165,362,cs),
(-165,338,o),
(-152,319,o),
(-128,319,cs),
(-50,319,o),
(51,368,o),
(113,457,c),
(92,475,l),
(92,260,l)
);
}
);
width = 279;
}
);
},
{
color = 6;
export = 0;
glyphname = _part.t.in.cv03;
lastChange = "2023-02-13 11:45:07 +0000";
layers = (
{
layerId = "6DBDBFCA-DF26-4695-B281-FA25C6EAD80F";
shapes = (
{
closed = 1;
nodes = (
(-149,-60,o),
(-135,-48,cs),
(10,70,o),
(173,192,o),
(173,425,c),
(88,425,l),
(88,223,o),
(-76,109,o),
(-196,14,cs),
(-212,2,o),
(-220,-9,o),
(-220,-22,cs),
(-220,-41,o),
(-194,-67,o),
(-174,-67,cs),
(-160,-67,o)
);
}
);
width = 274;
}
);
},
{
color = 6;
export = 0;
glyphname = _part.z.in.cv01;
lastChange = "2023-02-13 11:45:07 +0000";
layers = (
{
layerId = "6DBDBFCA-DF26-4695-B281-FA25C6EAD80F";
shapes = (
{
closed = 1;
nodes = (
(-45,-14,o),
(16,4,o),
(71,39,cs),
(171,103,o),
(232,222,o),
(232,353,cs),
(232,421,o),
(213,504,o),
(188,548,c),
(151,553,o),
(108,536,o),
(92,512,c),
(92,482,o),
(115,429,o),
(138,405,c),
(141,395,o),
(144,367,o),
(144,345,cs),
(144,193,o),
(35,70,o),
(-101,70,cs),
(-123,70,o),
(-137,54,o),
(-137,28,cs),
(-137,4,o),
(-124,-14,o),
(-105,-14,cs)
);
}
);
width = 343;
}
);
metricLeft = n.medi.cv01;
},
{
color = 6;
export = 0;
glyphname = _part.z.in.cv02;
lastChange = "2023-02-13 11:45:07 +0000";
layers = (
{
layerId = "6DBDBFCA-DF26-4695-B281-FA25C6EAD80F";
shapes = (
{
closed = 1;
nodes = (
(-128,305,o),
(-111,302,o),
(-98,302,cs),
(3,302,o),
(69,375,o),
(69,488,cs),
(69,538,o),
(45,573,o),
(12,573,cs),
(-14,573,o),
(-44,560,o),
(-63,538,c),
(-51,477,o),
(-39,441,o),
(-11,392,c),
(-1,496,l),
(-25,408,o),
(-48,385,o),
(-94,385,cs),
(-103,385,o),
(-114,387,o),
(-120,388,cs),
(-130,390,o),
(-134,391,o),
(-139,391,cs),
(-157,391,o),
(-172,369,o),
(-172,344,cs),
(-172,326,o),
(-164,317,o),
(-142,310,cs)
);
}
);
width = 197;
}
);
metricLeft = z.medi.cv02;
},
{
color = 6;
export = 0;
glyphname = _part.z.in.cv03;
lastChange = "2023-02-13 11:45:07 +0000";
layers = (
{
layerId = "6DBDBFCA-DF26-4695-B281-FA25C6EAD80F";
shapes = (
{
closed = 1;
nodes = (
(86,71,o),
(195,233,o),
(195,405,cs),
(195,453,o),
(184,516,o),
(170,545,c),
(144,549,o),
(82,530,o),
(59,511,c),
(59,483,o),
(81,429,o),
(104,400,c),
(105,276,o),
(5,132,o),
(-160,22,cs),
(-178,10,o),
(-182,6,o),
(-182,-4,cs),
(-182,-34,o),
(-160,-70,o),
(-141,-70,cs),
(-135,-70,o),
(-129,-68,o),
(-120,-62,cs)
);
}
